<svg id="svg" version="1.1" xmlns="http://www.w3.org/2000/svg" xmlns:xlink="http://www.w3.org/1999/xlink" width="400" height="400" viewBox="0, 0, 400,400"><g id="svgg"><path id="path0" d="M143.252 73.823 C 115.037 79.959,104.779 113.016,124.523 134.174 C 127.054 136.886,128.988 139.219,128.820 139.360 C 128.653 139.500,126.582 140.839,124.219 142.335 C 115.368 147.937,107.944 158.178,104.234 169.903 L 102.497 175.391 97.538 175.882 C 67.060 178.902,54.142 215.095,75.524 237.563 L 79.672 241.922 74.142 245.700 C 58.963 256.072,56.469 261.740,49.941 300.695 C 45.498 327.207,45.442 328.022,47.902 330.333 L 49.710 332.031 200.109 332.031 L 350.509 332.031 352.208 330.223 C 354.518 327.764,354.459 326.953,350.059 300.695 C 343.531 261.740,341.037 256.072,325.858 245.700 L 320.328 241.922 324.476 237.563 C 346.093 214.847,333.192 179.393,302.042 175.911 L 297.388 175.391 295.719 169.922 C 292.233 158.497,285.988 149.729,276.688 143.203 C 273.826 141.194,271.340 139.443,271.165 139.312 C 270.989 139.181,272.847 136.975,275.293 134.410 C 297.866 110.745,282.240 73.828,249.650 73.828 C 216.739 73.828,201.420 108.730,223.215 134.054 L 227.901 139.499 224.031 141.820 C 216.131 146.557,203.148 163.455,203.121 169.036 C 203.079 177.543,199.212 177.674,196.588 169.258 C 193.181 158.330,184.108 146.459,175.280 141.378 L 172.071 139.531 176.647 134.215 C 200.329 106.698,177.975 66.272,143.252 73.823 M161.412 86.938 C 184.570 98.765,176.627 133.865,150.781 133.917 C 123.373 133.973,116.183 96.062,141.685 85.954 C 147.374 83.700,155.903 84.125,161.412 86.938 M258.093 85.964 C 274.850 92.233,279.615 114.135,266.973 126.777 C 254.859 138.891,234.896 135.382,227.221 119.790 C 217.504 100.053,237.422 78.229,258.093 85.964 M161.168 147.663 C 173.513 151.477,184.253 163.149,186.320 175.000 C 186.785 177.665,186.690 177.790,182.588 179.912 C 171.013 185.901,163.891 197.700,163.746 211.128 L 163.672 217.959 150.690 217.964 L 137.709 217.969 137.336 210.232 C 136.696 196.933,129.143 184.916,118.144 179.694 C 113.436 177.459,113.639 178.063,115.543 171.946 C 121.495 152.820,142.195 141.803,161.168 147.663 M257.723 146.922 C 270.091 149.773,281.591 160.874,284.726 172.989 C 285.384 175.535,285.839 177.644,285.735 177.676 C 272.782 181.673,262.500 196.767,262.500 211.788 L 262.500 217.969 249.414 217.970 L 236.328 217.972 236.590 213.337 C 237.356 199.794,228.939 185.129,217.297 179.723 C 212.334 177.418,212.292 176.035,216.893 166.552 C 224.239 151.414,241.406 143.160,257.723 146.922 M109.766 188.820 C 115.561 190.713,122.659 198.087,124.556 204.185 C 132.302 229.090,101.946 247.772,83.515 229.443 C 64.608 210.641,84.121 180.444,109.766 188.820 M210.350 189.643 C 229.394 198.020,229.646 224.472,210.777 234.534 C 205.894 237.139,194.106 237.139,189.223 234.534 C 160.408 219.167,180.485 176.507,210.350 189.643 M309.100 189.442 C 321.384 194.954,327.230 209.980,321.733 221.917 C 310.752 245.768,275.956 239.340,274.386 213.170 C 273.282 194.771,292.182 181.853,309.100 189.442 M168.854 231.445 C 169.371 232.412,171.658 235.157,173.936 237.545 L 178.077 241.888 173.070 245.179 C 160.906 253.177,153.824 265.683,151.094 283.984 L 150.511 287.891 149.532 281.844 C 146.734 264.566,139.355 252.272,127.323 244.846 L 122.732 242.012 126.445 238.389 C 128.488 236.396,130.831 233.623,131.654 232.227 L 133.149 229.688 150.532 229.688 C 167.758 229.688,167.922 229.703,168.854 231.445 M269.470 233.667 C 270.940 235.834,273.357 238.608,274.841 239.831 L 277.540 242.056 274.378 243.669 C 262.613 249.671,253.677 263.475,250.810 280.078 L 249.460 287.891 248.892 283.984 C 246.247 265.814,239.095 253.178,226.930 245.179 L 221.923 241.888 226.064 237.545 C 228.342 235.157,230.629 232.412,231.146 231.445 C 232.078 229.702,232.233 229.688,249.442 229.708 L 266.797 229.728 269.470 233.667 M106.250 249.266 C 127.216 252.636,134.660 263.153,139.888 296.788 C 141.599 307.793,143.196 317.764,143.436 318.945 L 143.874 321.094 101.234 321.094 C 70.046 321.094,58.594 320.857,58.594 320.211 C 58.594 317.344,65.134 277.848,66.144 274.609 C 70.796 259.706,82.966 250.440,100.391 248.535 C 100.820 248.488,103.457 248.817,106.250 249.266 M210.583 250.432 C 218.662 252.648,228.347 260.705,232.285 268.484 C 235.198 274.239,235.786 276.836,239.375 299.805 L 242.702 321.094 200.000 321.094 L 157.298 321.094 160.625 299.805 C 165.170 270.720,166.515 266.965,175.306 258.826 C 185.192 249.674,197.308 246.791,210.583 250.432 M310.668 250.890 C 321.327 254.149,330.764 263.938,333.913 275.000 C 334.965 278.698,341.384 317.372,341.400 320.117 C 341.405 320.887,332.361 321.094,298.766 321.094 L 256.126 321.094 256.564 318.945 C 256.805 317.764,258.390 307.826,260.085 296.862 C 263.479 274.911,264.842 270.265,269.911 263.379 C 279.106 250.889,294.868 246.059,310.668 250.890 " stroke="none" fill="#000000" fill-rule="evenodd"></path></g></svg>