<?xml version="1.0" standalone="no"?>
<!DOCTYPE svg PUBLIC "-//W3C//DTD SVG 20010904//EN"
 "http://www.w3.org/TR/2001/REC-SVG-20010904/DTD/svg10.dtd">
<svg version="1.0" xmlns="http://www.w3.org/2000/svg"
 width="512.000000pt" height="512.000000pt" viewBox="0 0 512.000000 512.000000"
 preserveAspectRatio="xMidYMid meet">

<g transform="translate(0.000000,512.000000) scale(0.100000,-0.100000)"
fill="#000000" stroke="none">
<path d="M2384 4260 c-835 -60 -1585 -520 -2018 -1238 -338 -561 -446 -1231
-302 -1874 40 -175 66 -248 99 -272 l28 -21 2369 0 2369 0 28 21 c33 24 59 97
99 272 191 852 -62 1733 -676 2353 -473 478 -1070 739 -1745 762 -77 3 -190 1
-251 -3z m66 -362 c0 -171 9 -218 47 -248 57 -45 143 -14 163 58 5 20 10 106
10 190 l0 152 58 -6 c238 -23 462 -71 629 -133 110 -41 278 -119 276 -128 -1
-5 -38 -71 -82 -148 -94 -162 -101 -196 -52 -246 24 -23 38 -29 74 -29 60 0
77 18 170 183 69 121 80 136 97 127 88 -47 316 -242 440 -375 123 -132 265
-325 245 -332 -5 -2 -71 -39 -145 -82 -155 -90 -181 -120 -165 -186 6 -22 22
-47 38 -59 49 -36 83 -27 237 62 78 45 146 82 150 82 19 0 122 -256 171 -423
44 -150 89 -412 89 -519 l0 -28 -174 0 c-173 0 -175 0 -205 -26 -38 -32 -49
-80 -27 -123 28 -54 56 -61 241 -61 l166 0 -6 -77 c-10 -118 -32 -263 -56
-363 l-21 -90 -2258 0 -2258 0 -21 90 c-24 100 -46 245 -56 363 l-6 77 166 0
c185 0 213 7 241 61 22 43 11 91 -27 123 -30 26 -32 26 -205 26 l-174 0 0 28
c0 107 45 369 89 519 49 167 152 423 171 423 4 0 72 -37 150 -82 154 -89 188
-98 237 -62 16 12 32 37 38 59 16 66 -10 96 -165 186 -74 43 -139 80 -145 82
-20 7 122 200 245 332 124 133 352 328 440 375 17 9 28 -6 97 -127 93 -165
110 -183 170 -183 60 0 103 40 103 97 0 35 -56 145 -151 299 l-19 32 67 32
c274 130 562 204 886 229 15 1 17 -12 17 -151z"/>
<path d="M3705 2978 c-27 -6 -416 -343 -1154 -996 -187 -166 -206 -194 -199
-293 11 -151 177 -242 307 -169 30 17 194 197 574 629 624 710 595 677 603
707 9 35 -3 72 -32 99 -29 27 -58 34 -99 23z"/>
</g>
</svg>
