<?xml version="1.0" standalone="no"?>
<!DOCTYPE svg PUBLIC "-//W3C//DTD SVG 20010904//EN"
 "http://www.w3.org/TR/2001/REC-SVG-20010904/DTD/svg10.dtd">
<svg version="1.0" xmlns="http://www.w3.org/2000/svg"
 width="1028.000000pt" height="778.000000pt" viewBox="0 0 1028.000000 778.000000"
 preserveAspectRatio="xMidYMid meet">

<g transform="translate(0.000000,778.000000) scale(0.100000,-0.100000)"
fill="#000000" stroke="none">
<path d="M5805 6561 c-29 -12 -71 -54 -88 -87 -8 -16 -41 -110 -72 -209 -32
-99 -58 -181 -59 -182 -1 -2 -42 -14 -91 -28 -120 -35 -294 -107 -387 -161
-42 -24 -80 -44 -83 -44 -3 0 -92 43 -196 95 -269 135 -277 134 -457 -48 -170
-173 -171 -179 -37 -444 52 -103 95 -191 95 -196 0 -5 -17 -39 -39 -75 -47
-81 -121 -250 -152 -350 -17 -52 -27 -72 -38 -70 -10 2 -37 65 -78 187 -86
257 -101 270 -310 271 -223 0 -238 -12 -325 -270 l-63 -184 -90 -27 c-118 -34
-230 -80 -335 -136 l-85 -45 -173 86 c-188 93 -239 105 -292 70 -41 -27 -210
-197 -226 -226 -8 -15 -14 -50 -14 -78 0 -44 11 -73 87 -220 l87 -169 -23 -38
c-48 -80 -111 -225 -146 -334 -20 -63 -40 -120 -44 -128 -3 -7 -78 -37 -166
-66 -210 -68 -237 -83 -265 -139 -20 -42 -21 -58 -18 -200 4 -216 6 -218 283
-307 88 -28 161 -52 163 -54 1 -1 11 -34 22 -72 27 -99 112 -303 155 -376 l37
-62 -87 -171 c-126 -248 -124 -264 49 -432 100 -97 146 -120 209 -106 18 3
106 44 197 89 l165 82 121 -62 c69 -36 180 -81 257 -106 l136 -44 55 -171 c87
-268 94 -274 318 -274 231 0 233 2 319 259 l62 186 132 43 c73 24 189 71 257
105 l125 63 167 -83 c91 -45 182 -85 202 -89 62 -12 111 16 221 129 106 107
127 146 117 211 -3 17 -44 108 -90 201 l-86 170 40 68 c22 38 55 104 73 148
18 43 35 79 38 79 8 0 204 -59 207 -63 1 -1 28 -83 59 -182 65 -206 82 -241
131 -274 49 -34 189 -49 320 -34 151 16 164 31 254 300 l66 196 85 24 c119 34
247 86 372 151 l108 56 189 -97 c265 -136 274 -135 448 37 179 175 180 188 47
456 l-96 190 75 153 c43 87 92 207 116 282 l41 131 189 62 c272 91 293 109
305 266 10 137 -1 251 -31 303 -31 53 -77 75 -296 144 l-166 53 -47 144 c-27
83 -78 204 -118 285 l-70 140 97 189 c134 264 133 280 -51 460 -169 165 -173
166 -444 32 l-196 -97 -69 41 c-93 54 -264 126 -387 162 -55 17 -102 31 -103
33 -1 1 -30 90 -64 197 -60 186 -65 197 -110 243 l-47 47 -184 -1 c-101 0
-193 -4 -204 -8z m371 -80 c35 -22 33 -15 116 -271 l64 -195 97 -26 c152 -41
340 -122 488 -210 l35 -21 195 101 c184 95 214 106 266 103 24 -2 171 -136
215 -196 45 -62 40 -83 -73 -309 l-102 -202 27 -45 c87 -145 198 -418 221
-540 l6 -35 191 -60 c104 -32 208 -67 229 -77 58 -26 69 -60 69 -220 0 -138
-10 -180 -48 -203 -9 -5 -111 -41 -227 -80 l-210 -70 -33 -113 c-44 -153 -91
-266 -164 -396 l-61 -110 102 -203 c70 -141 101 -214 101 -238 0 -29 -11 -47
-63 -103 -34 -38 -86 -89 -115 -115 -79 -70 -89 -68 -328 55 l-198 101 -40
-23 c-190 -107 -294 -152 -472 -204 l-109 -31 -70 -212 c-92 -279 -80 -267
-263 -271 -152 -4 -203 6 -228 43 -8 13 -45 117 -82 231 -60 187 -70 209 -92
216 -225 64 -416 143 -567 233 l-31 19 -200 -102 c-242 -124 -245 -124 -332
-48 -85 73 -170 173 -171 199 -3 47 6 68 103 258 l101 196 -43 74 c-85 144
-159 328 -206 509 l-9 35 -205 67 c-113 37 -216 73 -228 80 -44 23 -52 56 -52
218 l0 152 28 28 c23 22 74 43 241 96 l211 68 31 101 c57 187 130 358 205 476
l27 43 -97 188 c-54 103 -101 201 -106 218 -16 56 4 91 114 199 141 136 130
136 395 0 l196 -102 80 48 c114 68 256 129 407 175 72 22 132 41 133 42 2 2
33 98 70 213 37 116 75 218 84 229 27 31 50 35 201 35 125 1 149 -2 176 -18z
m-2218 -1345 c37 -19 43 -32 110 -241 46 -146 62 -182 80 -190 12 -5 22 -12
22 -15 0 -3 -80 -31 -178 -62 -98 -32 -194 -68 -213 -80 -60 -40 -72 -82 -79
-262 l-5 -159 -85 -17 c-195 -40 -352 -123 -499 -264 -126 -122 -215 -270
-267 -443 -32 -108 -44 -310 -24 -430 50 -314 256 -591 545 -733 165 -81 228
-95 440 -95 158 0 190 3 260 23 171 49 325 142 465 282 38 39 77 70 86 70 9 0
104 44 210 98 l194 97 33 -19 c17 -11 82 -45 144 -76 l112 -56 -34 -79 c-19
-44 -56 -115 -81 -160 l-47 -80 87 -168 c48 -92 92 -182 96 -199 14 -47 -8
-83 -112 -186 -80 -77 -100 -92 -127 -92 -22 0 -96 33 -216 95 l-184 96 -39
-25 c-115 -72 -326 -159 -491 -202 l-35 -9 -62 -195 c-81 -252 -68 -240 -259
-240 -191 0 -178 -12 -258 240 l-63 195 -34 9 c-170 44 -342 114 -472 193
l-58 34 -185 -95 c-101 -53 -194 -96 -205 -96 -37 0 -73 26 -162 118 -118 120
-118 116 4 351 l91 176 -46 80 c-60 102 -128 263 -162 388 l-28 97 -191 61
c-254 81 -246 73 -246 254 0 146 8 178 49 200 15 7 107 38 206 69 99 31 183
62 187 69 4 7 8 21 8 32 1 64 118 346 201 486 l22 37 -93 178 c-114 222 -115
228 -37 315 87 96 154 149 188 149 17 0 108 -39 217 -93 l187 -94 45 30 c102
67 425 197 489 197 23 0 31 19 100 235 56 175 55 174 91 198 33 23 266 25 308
3z m37 -1202 c110 -37 201 -68 202 -69 2 -1 14 -41 28 -90 35 -119 106 -293
161 -390 l46 -80 -97 -195 c-134 -274 -134 -279 59 -469 l117 -115 -38 -39
c-60 -63 -188 -153 -271 -193 -188 -89 -424 -112 -625 -60 -326 84 -573 328
-669 662 -30 107 -33 351 -4 459 24 91 94 241 150 319 139 195 383 344 611
374 56 7 62 6 95 -20 22 -17 108 -52 235 -94z"/>
<path d="M5818 5365 c-291 -46 -570 -229 -736 -483 -107 -165 -153 -298 -172
-499 -25 -261 40 -510 190 -727 122 -177 313 -325 515 -401 228 -86 502 -90
739 -11 615 207 915 916 638 1508 -206 438 -686 689 -1174 613z m432 -94 c605
-158 929 -813 687 -1388 -77 -182 -245 -375 -415 -477 -521 -311 -1191 -100
-1452 457 -82 175 -110 399 -76 597 21 117 85 279 151 380 64 97 200 233 295
295 95 62 261 130 365 149 117 22 334 16 445 -13z"/>
</g>
</svg>
