<?xml version="1.0" standalone="no"?>
<!DOCTYPE svg PUBLIC "-//W3C//DTD SVG 20010904//EN"
 "http://www.w3.org/TR/2001/REC-SVG-20010904/DTD/svg10.dtd">
<svg version="1.0" xmlns="http://www.w3.org/2000/svg"
 width="1386.000000pt" height="1196.000000pt" viewBox="0 0 1386.000000 1196.000000"
 preserveAspectRatio="xMidYMid meet">

<g transform="translate(0.000000,1196.000000) scale(0.100000,-0.100000)"
fill="#000000" stroke="none">
<path d="M3715 11369 c-1182 -6 -1205 -6 -1395 -45 -438 -90 -811 -361 -1035
-751 -94 -166 -153 -340 -186 -552 -20 -126 -22 -194 -29 -911 -10 -1003 -10
-5247 0 -6250 7 -717 9 -785 29 -911 42 -269 131 -492 281 -701 58 -81 257
-280 338 -338 209 -150 432 -239 701 -281 127 -20 191 -22 971 -29 1081 -10
5779 -10 6860 0 780 7 844 9 971 29 269 42 492 131 701 281 81 58 280 257 338
338 150 209 239 432 281 701 20 126 22 193 29 916 10 1010 10 5243 0 6245 -7
717 -9 785 -29 911 -42 269 -131 492 -281 701 -58 81 -257 280 -338 338 -207
148 -432 239 -697 281 -124 20 -182 21 -1345 29 -1368 9 -4419 9 -6165 -1z
m7190 -169 c333 -15 501 -52 720 -159 197 -96 365 -236 497 -414 67 -91 165
-283 202 -398 39 -122 66 -307 76 -524 13 -266 13 -7174 0 -7440 -10 -217 -37
-402 -76 -524 -37 -113 -134 -305 -202 -398 -77 -103 -192 -218 -295 -295 -93
-68 -285 -165 -398 -202 -122 -39 -307 -66 -524 -76 -267 -13 -7903 -13 -8170
0 -217 10 -402 37 -524 76 -113 37 -305 134 -398 202 -103 77 -218 192 -295
295 -68 93 -165 285 -202 398 -39 122 -66 307 -76 524 -13 266 -13 7174 0
7440 10 217 37 402 76 524 36 113 134 305 202 397 152 206 357 366 590 460
163 66 342 100 592 114 202 11 7969 11 8205 0z"/>
<path d="M8025 10843 c-77 -28 -135 -66 -192 -125 -92 -98 -128 -197 -121
-335 5 -105 37 -184 111 -275 l46 -56 -69 -41 -70 -42 -55 56 c-31 30 -73 67
-95 81 -22 15 -38 30 -35 34 2 4 20 31 40 59 50 75 68 146 63 245 -6 104 -33
162 -113 242 -76 77 -146 106 -255 106 -111 0 -178 -28 -261 -111 -84 -84
-109 -145 -109 -264 0 -117 13 -152 94 -262 15 -20 12 -23 -49 -67 -73 -53
-144 -143 -188 -238 -30 -64 -31 -67 -38 -295 -4 -126 -8 -321 -8 -431 l-1
-202 35 -31 36 -31 338 0 338 0 6 -155 c6 -162 13 -188 49 -202 25 -9 1249 -7
1277 2 36 11 44 46 49 203 l5 152 338 0 338 0 37 32 36 32 -7 406 c-8 434 -12
469 -63 564 -26 50 -164 198 -210 227 l-23 14 26 35 c15 19 39 58 53 85 25 45
27 60 27 160 0 104 -2 113 -31 170 -36 67 -109 141 -175 177 -39 20 -58 23
-159 23 -109 0 -118 -2 -168 -30 -73 -40 -155 -131 -181 -200 -26 -68 -28
-187 -6 -263 9 -28 30 -70 48 -94 18 -24 36 -48 40 -54 4 -7 -11 -23 -36 -40
-23 -15 -66 -52 -95 -82 l-53 -54 -70 42 -70 41 33 40 c99 121 133 213 126
347 -3 72 -10 100 -36 155 -43 92 -137 186 -229 229 -60 29 -80 33 -168 35
-77 3 -112 -1 -150 -14z m203 -155 c155 -38 249 -197 209 -351 -35 -135 -156
-224 -292 -215 -238 15 -359 295 -204 472 78 88 178 121 287 94z m-858 -80
c159 -81 158 -309 -3 -384 -29 -13 -65 -24 -82 -24 -117 0 -214 96 -215 213
-1 159 162 265 300 195z m1756 3 c72 -33 124 -117 124 -202 0 -49 -42 -132
-82 -162 -51 -40 -117 -54 -175 -39 -89 24 -149 91 -159 179 -20 167 142 292
292 224z m-1702 -610 c68 -30 141 -85 167 -127 19 -31 20 -37 6 -52 -28 -31
-87 -161 -103 -224 -11 -44 -17 -139 -21 -315 l-6 -253 -289 0 -289 0 3 353 3
352 27 57 c53 113 142 193 250 223 71 20 188 13 252 -14z m1778 -9 c81 -38
149 -107 190 -190 l33 -67 3 -352 3 -353 -290 0 -291 0 0 214 c0 300 -18 396
-102 535 -21 34 -38 66 -38 71 0 17 106 112 151 135 70 36 114 45 201 41 60
-3 92 -11 140 -34z m-880 -70 c172 -57 292 -188 338 -368 18 -71 20 -111 20
-486 l0 -408 -520 0 -520 0 0 408 c0 311 4 423 14 473 41 193 197 351 390 395
77 17 202 11 278 -14z"/>
<path d="M5585 8700 c-331 -19 -621 -87 -955 -224 -697 -287 -1275 -861 -1581
-1571 -66 -155 -150 -409 -183 -556 -48 -218 -60 -342 -61 -634 0 -281 5 -334
52 -579 13 -70 23 -130 21 -131 -2 -2 -67 -29 -146 -60 -78 -31 -144 -61 -147
-65 -3 -4 104 -96 238 -204 133 -107 279 -227 325 -266 46 -39 87 -68 91 -65
5 2 11 34 15 70 4 35 26 172 50 302 50 267 80 463 73 470 -3 2 -65 -19 -138
-47 -73 -27 -136 -47 -140 -43 -9 11 -26 84 -43 193 -53 338 -35 747 50 1085
172 687 591 1276 1185 1665 314 205 722 361 1074 410 157 21 223 25 447 25
146 0 228 4 227 10 0 6 -19 57 -43 115 l-42 105 -119 1 c-66 1 -178 -2 -250
-6z"/>
<path d="M9087 8078 c-4 -178 -7 -702 -7 -1165 l0 -843 1171 0 1172 0 -7 61
c-3 34 -6 77 -6 95 l0 34 -1063 0 -1064 0 -6 263 c-4 144 -7 625 -7 1070 l0
807 -88 0 -89 0 -6 -322z"/>
<path d="M10984 7870 c-103 -58 -151 -151 -141 -269 3 -36 8 -75 12 -86 5 -16
-33 -58 -188 -213 l-194 -193 -63 11 c-47 9 -80 8 -133 0 l-70 -12 -90 90 -90
90 13 61 c7 34 10 79 6 103 -17 108 -101 211 -198 244 -128 42 -280 -24 -342
-148 -35 -71 -36 -171 -2 -243 30 -66 110 -138 173 -156 54 -15 145 -15 183 0
23 8 33 1 121 -86 l96 -95 -9 -42 c-14 -58 -4 -155 20 -201 32 -63 108 -132
165 -151 64 -21 167 -15 222 14 53 27 109 87 134 142 23 49 29 168 11 214 -9
25 2 38 183 222 l192 196 60 -12 c73 -15 134 -7 202 26 103 50 159 145 156
264 -1 70 -20 116 -70 170 -58 65 -120 90 -223 90 -76 0 -91 -3 -136 -30z
m208 -177 c60 -58 17 -163 -67 -163 -27 0 -44 8 -66 29 -88 88 43 220 133 134z
m-1374 -198 c39 -32 48 -74 28 -114 -30 -57 -94 -68 -145 -25 -50 42 -41 117
17 148 39 22 67 19 100 -9z m596 -581 c40 -41 39 -96 -5 -136 -49 -46 -117
-32 -148 29 -19 37 -13 73 18 104 40 39 97 41 135 3z"/>
<path d="M10192 4750 c-106 -208 -192 -384 -192 -390 0 -9 20 -10 68 -6 37 3
103 7 146 8 l79 3 1 -30 c1 -113 -43 -362 -101 -560 -126 -433 -376 -851 -710
-1182 -561 -556 -1334 -847 -2110 -795 -258 17 -508 68 -756 154 -65 22 -119
39 -121 37 -7 -9 12 -231 20 -238 24 -24 320 -105 509 -140 176 -33 276 -41
510 -41 263 0 390 11 590 51 836 166 1559 687 2004 1442 112 191 209 419 280
657 53 175 78 299 101 494 11 88 23 163 27 167 5 4 75 12 157 18 82 6 152 14
157 17 5 3 -24 53 -65 112 -40 59 -148 218 -238 354 l-165 247 -191 -379z"/>
<path d="M4989 4271 c-15 -12 -27 -37 -34 -67 -12 -59 79 -25 -715 -264 -327
-98 -653 -198 -725 -221 l-130 -43 -532 -5 c-629 -7 -571 6 -584 -138 -4 -48
-8 -97 -8 -109 -1 -20 -7 -21 -152 -26 -193 -7 -189 -4 -203 -156 -9 -104 -11
-109 -38 -125 -42 -24 -50 -58 -46 -181 5 -115 6 -116 62 -151 12 -7 18 -31
22 -90 8 -107 20 -152 46 -166 11 -6 85 -14 164 -17 l144 -5 1 -51 c1 -90 14
-156 36 -177 14 -15 44 -24 103 -32 l84 -12 53 -220 c29 -121 81 -341 116
-490 l63 -270 174 -3 c96 -2 275 0 396 3 l222 7 -43 127 c-24 69 -73 211 -109
315 -57 164 -64 192 -52 205 25 29 29 61 11 108 l-18 46 40 76 c26 51 46 77
59 79 11 2 89 -18 174 -43 414 -124 868 -260 985 -295 72 -21 188 -56 259 -77
l130 -38 12 -55 c13 -57 41 -90 76 -90 28 0 76 27 88 49 6 13 10 167 10 428
l0 408 55 42 c205 159 263 463 131 687 -25 43 -126 153 -162 177 -21 14 -22
22 -30 428 l-9 413 -24 19 c-30 24 -72 24 -102 0z m-39 -1311 c0 -749 -3
-1010 -11 -1010 -7 0 -55 13 -108 29 -53 16 -190 57 -306 91 -115 34 -266 79
-335 100 -261 79 -469 141 -567 171 l-103 31 0 583 c0 326 4 586 9 589 5 3 62
21 127 40 66 19 308 91 539 161 231 70 456 137 500 150 44 13 114 35 155 48
41 14 81 25 88 26 9 1 12 -207 12 -1009z m-1610 -5 l0 -535 -450 0 -450 0 0
535 0 535 450 0 450 0 0 -535z m-1080 5 l0 -271 -85 3 -86 3 0 263 c1 144 1
264 1 267 0 3 38 5 85 5 l85 0 0 -270z m2926 147 c24 -52 29 -75 29 -142 0
-67 -5 -90 -29 -142 -54 -117 -56 -111 -56 142 0 253 2 259 56 142z m-2011
-899 c-7 -18 -34 -75 -58 -126 l-46 -93 64 -182 c35 -100 77 -220 94 -266 17
-47 31 -91 31 -98 0 -11 -39 -13 -202 -11 l-203 3 -26 105 c-29 112 -145 614
-155 668 l-6 32 260 0 261 0 -14 -32z"/>
<path d="M5831 3509 c-225 -91 -292 -122 -314 -143 -44 -44 2 -144 60 -130
127 30 498 187 520 220 28 44 -19 124 -74 124 -10 0 -96 -32 -192 -71z"/>
<path d="M5543 3030 c-12 -5 -29 -20 -38 -34 -19 -28 -14 -55 17 -98 l19 -28
187 1 c226 0 338 10 360 33 24 23 20 82 -6 109 -22 21 -29 22 -270 24 -136 2
-257 -2 -269 -7z"/>
<path d="M5520 2655 c-31 -33 -31 -82 1 -108 53 -44 457 -207 513 -207 25 0
76 50 76 75 0 42 -25 65 -114 104 -151 66 -403 161 -429 161 -13 0 -34 -11
-47 -25z"/>
</g>
</svg>