<svg id="svg" version="1.1" xmlns="http://www.w3.org/2000/svg" xmlns:xlink="http://www.w3.org/1999/xlink" width="400" height="79.3708408953418" viewBox="0, 0, 400,79.3708408953418"><g id="svgg"><path id="path0" d="M0.000 39.667 L 0.000 79.333 112.750 79.333 L 225.500 79.333 225.500 39.667 L 225.500 0.000 112.750 0.000 L 0.000 0.000 0.000 39.667 M229.167 39.667 L 229.167 79.333 314.583 79.333 L 400.000 79.333 400.000 39.667 L 400.000 0.000 314.583 0.000 L 229.167 0.000 229.167 39.667 M379.750 10.081 C 381.552 10.407,383.699 11.177,384.167 11.666 C 384.212 11.714,384.569 11.960,384.959 12.213 C 389.382 15.080,391.714 21.636,390.040 26.500 C 389.423 28.294,387.724 31.333,387.337 31.333 C 387.274 31.333,387.123 31.521,387.000 31.750 C 386.877 31.979,386.721 32.167,386.652 32.167 C 386.584 32.167,386.206 32.467,385.813 32.833 C 385.420 33.200,385.044 33.500,384.978 33.500 C 384.911 33.500,384.755 33.594,384.631 33.708 C 384.103 34.195,382.268 35.005,380.667 35.458 C 378.809 35.984,374.396 35.736,373.063 35.030 C 372.891 34.939,372.236 34.614,371.608 34.307 C 365.509 31.330,362.812 23.267,365.887 17.200 C 366.087 16.806,366.324 16.337,366.415 16.158 C 366.505 15.980,366.636 15.833,366.706 15.833 C 366.776 15.833,366.833 15.728,366.833 15.599 C 366.833 15.321,368.950 13.116,369.943 12.358 C 371.842 10.909,374.866 9.884,377.333 9.853 C 377.929 9.846,379.017 9.948,379.750 10.081 M119.667 10.766 C 121.479 11.109,123.729 11.807,124.583 12.291 C 124.950 12.500,125.381 12.715,125.542 12.771 C 125.702 12.827,125.833 12.938,125.833 13.019 C 125.833 13.100,125.916 13.167,126.018 13.167 C 126.506 13.167,129.190 15.696,129.956 16.877 C 130.208 17.266,130.452 17.621,130.498 17.667 C 130.655 17.821,130.999 18.413,131.176 18.833 C 131.272 19.063,131.485 19.550,131.650 19.917 C 132.098 20.912,132.443 21.837,132.644 22.583 C 133.193 24.614,133.331 25.218,133.561 26.583 C 134.527 32.320,134.530 47.596,133.566 53.417 C 132.305 61.028,129.163 65.738,123.971 67.798 C 121.539 68.762,119.948 69.077,116.750 69.225 C 111.100 69.487,106.505 68.541,103.721 66.542 C 103.434 66.335,103.144 66.167,103.078 66.167 C 102.920 66.167,100.167 63.413,100.167 63.255 C 100.167 63.189,99.998 62.900,99.792 62.613 C 99.312 61.945,99.060 61.521,98.832 61.000 C 98.732 60.771,98.515 60.283,98.350 59.917 C 97.828 58.756,97.535 57.942,97.331 57.083 C 97.222 56.625,97.036 55.913,96.918 55.500 C 95.393 50.158,95.410 30.713,96.944 24.417 C 97.562 21.881,97.806 21.172,98.750 19.167 C 100.114 16.267,102.352 13.966,105.333 12.395 C 108.565 10.693,115.255 9.933,119.667 10.766 M301.620 10.758 C 302.826 10.998,303.909 11.281,305.333 11.729 C 305.654 11.830,306.276 12.120,306.716 12.373 C 307.155 12.626,307.586 12.833,307.674 12.833 C 307.762 12.833,307.833 12.903,307.833 12.989 C 307.833 13.074,307.965 13.186,308.125 13.238 C 308.632 13.400,311.333 15.866,311.333 16.166 C 311.333 16.258,311.390 16.334,311.458 16.334 C 311.527 16.335,311.770 16.616,311.999 16.959 C 312.227 17.303,312.457 17.621,312.509 17.667 C 312.619 17.762,313.882 20.332,313.943 20.583 C 313.965 20.675,314.169 21.313,314.395 22.000 C 314.867 23.433,315.139 24.402,315.235 25.000 C 315.273 25.229,315.384 25.904,315.484 26.500 C 316.570 33.017,316.567 47.446,315.477 53.583 C 315.380 54.133,315.268 54.771,315.229 55.000 C 315.121 55.643,314.657 57.500,314.505 57.896 C 313.916 59.437,313.711 59.913,313.114 61.119 C 312.129 63.114,311.007 64.457,308.889 66.177 C 308.713 66.321,308.459 66.490,308.326 66.554 C 308.193 66.618,307.858 66.818,307.583 66.999 C 307.072 67.336,306.911 67.416,305.750 67.912 C 299.311 70.661,288.104 69.283,283.941 65.231 C 283.165 64.476,282.167 63.329,282.167 63.193 C 282.167 63.102,282.110 63.003,282.042 62.972 C 281.658 62.802,280.219 60.032,279.751 58.562 C 278.717 55.318,278.350 53.284,277.965 48.667 C 277.685 45.299,277.685 34.911,277.966 31.333 C 278.277 27.370,278.782 24.396,279.536 22.083 C 280.067 20.454,281.406 17.590,281.834 17.167 C 281.881 17.121,282.135 16.793,282.399 16.439 C 283.037 15.583,284.591 14.063,285.189 13.711 C 285.452 13.555,285.667 13.369,285.667 13.297 C 285.667 13.225,285.738 13.167,285.825 13.167 C 285.912 13.167,286.418 12.904,286.950 12.584 C 289.913 10.796,297.235 9.885,301.620 10.758 M36.350 11.958 C 36.446 12.210,36.591 12.717,36.672 13.083 C 36.754 13.450,37.004 14.425,37.229 15.250 C 38.095 18.425,38.710 20.774,38.825 21.346 C 38.891 21.674,38.996 22.025,39.059 22.127 C 39.121 22.228,39.242 22.635,39.326 23.031 C 39.557 24.113,40.778 28.820,41.253 30.457 C 41.720 32.067,41.992 33.076,42.230 34.083 C 42.360 34.633,42.632 35.683,42.835 36.417 C 43.037 37.150,43.337 38.275,43.500 38.917 C 43.663 39.558,43.963 40.683,44.167 41.417 C 44.370 42.150,44.670 43.275,44.833 43.917 C 44.997 44.558,45.296 45.683,45.499 46.417 C 45.701 47.150,45.975 48.200,46.107 48.750 C 46.239 49.300,46.452 50.125,46.580 50.583 C 46.871 51.619,47.177 52.803,47.184 52.912 C 47.186 52.957,47.265 53.239,47.358 53.539 C 47.451 53.838,47.588 54.308,47.661 54.583 C 47.734 54.858,47.961 55.683,48.166 56.417 C 48.370 57.150,48.551 57.862,48.568 58.000 C 48.586 58.137,48.694 58.587,48.809 59.000 C 48.925 59.413,49.121 60.125,49.246 60.583 C 49.371 61.042,49.567 61.754,49.680 62.167 C 49.794 62.579,49.903 63.029,49.923 63.167 C 49.943 63.304,50.074 63.829,50.214 64.333 C 50.920 66.881,51.167 67.850,51.167 68.080 C 51.167 68.362,39.775 68.477,39.602 68.196 C 39.521 68.066,39.123 66.363,38.834 64.917 C 38.628 63.883,38.014 61.026,37.759 59.917 C 37.632 59.367,37.453 58.542,37.360 58.083 C 37.267 57.625,37.146 57.044,37.092 56.792 L 36.994 56.333 29.268 56.333 L 21.543 56.333 21.369 57.042 C 21.272 57.431,21.107 58.200,21.002 58.750 C 20.810 59.748,20.584 60.787,20.113 62.833 C 19.975 63.429,19.773 64.367,19.663 64.917 C 19.553 65.467,19.359 66.303,19.231 66.776 C 19.104 67.248,19.000 67.792,19.000 67.984 C 19.000 68.332,18.979 68.333,13.092 68.333 L 7.184 68.333 7.323 67.875 C 7.472 67.384,7.922 65.675,8.190 64.583 C 8.390 63.770,8.799 62.271,9.018 61.553 C 9.265 60.746,10.020 57.827,10.157 57.154 C 10.223 56.826,10.329 56.475,10.392 56.373 C 10.455 56.272,10.583 55.828,10.678 55.386 C 10.957 54.082,11.104 53.491,11.497 52.083 C 11.702 51.350,12.004 50.225,12.169 49.583 C 12.333 48.942,12.708 47.517,13.001 46.417 C 13.295 45.317,13.594 44.192,13.667 43.917 C 13.739 43.642,14.040 42.517,14.335 41.417 C 14.630 40.317,14.925 39.148,14.991 38.820 C 15.057 38.493,15.163 38.141,15.225 38.040 C 15.288 37.939,15.408 37.532,15.492 37.136 C 15.653 36.378,15.736 36.061,16.331 33.917 C 16.534 33.183,16.808 32.133,16.940 31.583 C 17.166 30.641,17.269 30.258,17.903 28.000 C 18.045 27.496,18.267 26.633,18.397 26.083 C 18.527 25.533,18.799 24.483,19.003 23.750 C 19.592 21.626,19.681 21.285,19.817 20.654 C 19.887 20.326,19.996 19.975,20.059 19.873 C 20.121 19.772,20.238 19.365,20.318 18.969 C 20.397 18.574,20.703 17.350,20.996 16.250 C 21.530 14.247,21.890 12.817,22.074 11.958 L 22.173 11.500 29.174 11.500 L 36.175 11.500 36.350 11.958 M77.667 11.683 C 79.927 11.923,83.053 12.664,83.441 13.052 C 83.504 13.115,83.653 13.167,83.772 13.167 C 85.123 13.167,89.667 17.672,89.667 19.012 C 89.667 19.103,89.768 19.345,89.892 19.548 C 90.016 19.751,90.210 20.367,90.323 20.917 C 90.435 21.467,90.603 22.254,90.696 22.667 C 91.451 26.029,90.515 31.578,88.861 33.542 C 88.726 33.702,88.657 33.833,88.709 33.833 C 88.924 33.833,87.448 35.441,86.567 36.167 C 85.765 36.827,84.450 37.539,83.211 37.982 C 82.350 38.290,82.150 38.721,82.833 38.796 C 83.841 38.906,85.374 39.383,86.221 39.850 C 86.388 39.943,86.838 40.180,87.221 40.378 C 91.204 42.438,93.411 48.712,92.428 55.181 C 92.078 57.484,91.159 60.469,90.688 60.833 C 90.629 60.879,90.433 61.198,90.252 61.542 C 90.072 61.885,89.866 62.167,89.795 62.167 C 89.725 62.167,89.667 62.254,89.667 62.360 C 89.667 62.664,87.154 65.054,86.329 65.535 C 84.592 66.547,82.736 67.358,81.500 67.646 C 78.479 68.348,78.798 68.333,67.009 68.333 L 55.667 68.333 55.667 39.917 L 55.667 11.500 65.792 11.499 C 72.066 11.498,76.582 11.569,77.667 11.683 M150.167 32.875 C 150.167 56.326,150.143 55.727,151.161 57.904 C 153.272 62.420,160.665 62.589,162.610 58.167 C 163.794 55.475,163.739 56.646,163.792 32.958 L 163.841 11.500 169.427 11.500 L 175.014 11.500 174.949 33.625 C 174.893 52.753,174.850 55.885,174.631 56.750 C 174.246 58.264,173.904 59.332,173.522 60.210 C 173.332 60.647,173.169 61.060,173.160 61.127 C 173.151 61.195,173.054 61.362,172.945 61.500 C 172.836 61.637,172.603 62.012,172.427 62.333 C 172.252 62.654,172.065 62.954,172.012 63.000 C 171.958 63.046,171.694 63.383,171.424 63.750 C 170.325 65.245,168.321 66.827,166.583 67.572 C 166.217 67.729,165.692 67.958,165.417 68.081 C 162.466 69.398,154.167 69.642,149.667 68.545 C 148.623 68.290,148.377 68.203,146.917 67.574 C 143.822 66.239,141.112 63.066,139.950 59.417 C 138.842 55.937,138.922 57.846,138.868 33.542 L 138.820 11.500 144.493 11.500 L 150.167 11.500 150.167 32.875 M214.667 16.083 L 214.667 20.667 208.417 20.667 L 202.167 20.667 202.167 44.500 L 202.167 68.333 196.583 68.333 L 191.000 68.333 191.000 44.500 L 191.000 20.667 184.667 20.667 L 178.333 20.667 178.333 16.083 L 178.333 11.500 196.500 11.500 L 214.667 11.500 214.667 16.083 M250.001 11.542 C 250.002 11.565,250.532 13.121,251.181 15.000 C 251.829 16.879,252.424 18.642,252.503 18.917 C 252.703 19.613,253.977 23.345,254.153 23.750 C 254.319 24.131,255.451 27.497,255.667 28.250 C 255.746 28.525,256.046 29.387,256.333 30.167 C 256.621 30.946,256.921 31.808,257.000 32.083 C 257.367 33.368,257.447 33.566,257.623 33.624 C 257.855 33.702,258.090 33.274,258.498 32.037 C 258.671 31.512,258.972 30.671,259.167 30.167 C 259.362 29.662,259.662 28.837,259.833 28.333 C 260.005 27.829,260.305 27.004,260.500 26.500 C 260.695 25.996,260.995 25.171,261.167 24.667 C 261.338 24.162,261.637 23.337,261.831 22.833 C 262.188 21.902,262.755 20.326,263.328 18.667 C 263.503 18.162,263.805 17.337,264.000 16.833 C 264.195 16.329,264.495 15.504,264.667 15.000 C 264.838 14.496,265.141 13.671,265.339 13.167 C 265.538 12.662,265.739 12.081,265.786 11.875 L 265.872 11.500 271.936 11.500 C 275.271 11.500,278.000 11.534,278.000 11.575 C 278.000 11.617,277.916 11.861,277.813 12.117 C 277.710 12.374,277.566 12.733,277.493 12.917 C 277.420 13.100,277.139 13.737,276.870 14.333 C 276.600 14.929,276.278 15.717,276.155 16.083 C 276.032 16.450,275.834 16.868,275.716 17.013 C 275.597 17.158,275.500 17.355,275.500 17.450 C 275.500 17.664,274.960 18.937,273.769 21.531 C 273.529 22.053,273.333 22.582,273.333 22.706 C 273.333 22.831,273.264 23.005,273.180 23.092 C 273.096 23.179,272.752 23.918,272.416 24.734 C 272.080 25.550,271.745 26.337,271.672 26.484 C 271.550 26.728,271.461 26.939,271.015 28.042 C 270.932 28.248,270.700 28.792,270.500 29.250 C 270.300 29.708,270.075 30.233,270.000 30.417 C 269.925 30.600,269.700 31.125,269.500 31.583 C 269.300 32.042,269.068 32.585,268.985 32.792 C 268.536 33.901,268.449 34.107,268.320 34.363 C 268.243 34.516,267.799 35.553,267.333 36.667 C 266.868 37.780,266.424 38.817,266.346 38.971 C 266.269 39.124,266.128 39.438,266.033 39.667 C 265.938 39.896,265.629 40.590,265.347 41.209 C 265.064 41.828,264.833 42.410,264.833 42.503 C 264.833 42.595,264.763 42.801,264.677 42.961 C 264.591 43.120,264.272 43.775,263.969 44.417 L 263.417 45.583 263.372 56.958 L 263.327 68.333 257.747 68.333 L 252.167 68.333 252.167 57.234 C 252.167 45.632,252.185 45.977,251.506 44.660 C 251.433 44.518,250.906 43.284,250.333 41.917 C 249.761 40.549,249.232 39.315,249.158 39.174 C 249.084 39.032,248.785 38.322,248.494 37.595 C 248.203 36.868,247.898 36.137,247.816 35.970 C 247.734 35.803,247.599 35.530,247.517 35.363 C 247.394 35.113,247.007 34.174,246.269 32.333 C 246.214 32.196,246.101 31.971,246.018 31.833 C 245.934 31.696,245.660 31.058,245.407 30.417 C 245.155 29.775,244.768 28.837,244.549 28.333 C 243.781 26.572,243.712 26.413,243.500 25.917 C 243.029 24.813,242.778 24.238,242.662 23.993 C 242.595 23.852,242.072 22.617,241.500 21.250 C 240.928 19.883,240.400 18.648,240.327 18.507 C 240.062 17.994,239.500 16.667,239.500 16.554 C 239.500 16.436,238.937 15.154,238.651 14.621 C 238.563 14.458,238.350 13.970,238.176 13.537 C 238.003 13.104,237.741 12.469,237.595 12.125 L 237.329 11.500 243.664 11.500 C 247.149 11.500,250.000 11.519,250.001 11.542 M332.000 32.965 C 332.000 51.507,332.034 54.561,332.250 55.390 C 332.387 55.918,332.500 56.462,332.500 56.598 C 332.500 56.979,333.484 59.000,333.670 59.000 C 333.760 59.000,333.833 59.078,333.833 59.174 C 333.833 59.429,334.326 59.899,335.083 60.367 C 338.214 62.301,342.701 61.366,344.324 58.441 C 345.664 56.026,345.664 56.031,345.665 32.208 L 345.667 11.500 351.253 11.500 L 356.839 11.500 356.818 33.208 C 356.795 56.925,356.828 56.073,355.835 58.917 C 355.644 59.467,355.463 59.992,355.434 60.083 C 355.066 61.261,353.744 63.315,352.350 64.877 C 351.724 65.578,349.457 67.134,348.417 67.575 C 348.050 67.731,347.525 67.958,347.250 68.081 C 345.259 68.970,340.380 69.451,336.250 69.167 C 332.382 68.901,331.270 68.661,328.667 67.536 C 326.271 66.501,323.630 63.840,322.591 61.417 C 322.434 61.050,322.230 60.610,322.139 60.438 C 320.761 57.860,320.674 56.202,320.670 32.375 L 320.667 11.500 326.333 11.500 L 332.000 11.500 332.000 32.965 M374.500 14.111 C 373.813 14.341,373.132 14.635,372.987 14.764 C 372.842 14.894,372.665 15.000,372.594 15.000 C 372.353 15.000,370.274 16.991,369.878 17.601 C 366.390 22.975,369.063 30.155,375.155 31.771 C 376.544 32.140,377.846 32.227,378.844 32.018 C 380.232 31.727,381.555 31.304,381.846 31.056 C 381.991 30.934,382.160 30.833,382.221 30.833 C 382.652 30.833,385.000 28.708,385.000 28.317 C 385.000 28.234,385.060 28.167,385.133 28.167 C 385.321 28.167,386.242 26.250,386.563 25.189 C 387.121 23.346,386.817 20.659,385.821 18.625 C 385.310 17.580,385.369 17.555,383.182 19.755 C 380.931 22.019,381.420 21.908,380.008 20.473 C 378.570 19.013,378.494 19.390,380.667 17.204 C 382.668 15.189,382.698 15.137,382.071 14.727 C 380.363 13.608,376.859 13.323,374.500 14.111 M112.871 18.918 C 112.387 19.036,111.893 19.215,111.772 19.315 C 111.651 19.415,111.511 19.455,111.459 19.404 C 111.282 19.227,109.411 21.251,109.059 22.000 C 108.300 23.618,107.883 25.001,107.728 26.417 C 107.688 26.783,107.615 27.196,107.566 27.333 C 106.904 29.189,106.900 50.893,107.562 52.667 C 107.613 52.804,107.686 53.217,107.724 53.583 C 108.001 56.260,110.032 60.333,111.090 60.333 C 111.164 60.333,111.342 60.434,111.487 60.558 C 111.950 60.953,113.730 61.333,115.114 61.333 C 117.950 61.333,120.098 60.080,121.111 57.833 C 121.694 56.543,121.833 56.173,121.833 55.922 C 121.833 55.770,121.905 55.511,121.993 55.347 C 123.151 53.182,123.480 34.427,122.486 27.167 C 121.566 20.441,118.257 17.603,112.871 18.918 M294.881 18.916 C 292.253 19.558,290.552 21.784,289.850 25.500 C 289.102 29.461,289.091 29.691,289.095 40.000 C 289.099 50.317,289.221 52.330,290.013 55.250 C 290.485 56.990,291.372 59.000,291.667 59.000 C 291.759 59.000,291.833 59.079,291.833 59.175 C 291.833 59.662,293.207 60.564,294.667 61.033 C 296.385 61.587,300.349 61.216,300.639 60.475 C 300.669 60.397,300.790 60.333,300.908 60.333 C 301.025 60.333,301.461 59.970,301.876 59.526 C 303.162 58.151,303.570 57.178,304.331 53.667 C 305.220 49.567,305.218 30.601,304.329 26.333 C 303.007 19.989,300.036 17.656,294.881 18.916 M67.000 27.417 L 67.000 35.000 69.208 34.997 C 72.828 34.992,76.582 34.336,76.805 33.669 C 76.836 33.576,76.953 33.500,77.065 33.500 C 77.300 33.500,78.133 32.644,78.605 31.917 C 80.586 28.865,79.735 22.925,77.048 21.042 C 76.754 20.835,76.434 20.667,76.338 20.667 C 76.241 20.667,76.032 20.595,75.873 20.508 C 75.017 20.037,73.299 19.833,70.198 19.833 L 67.000 19.833 67.000 27.417 M28.999 21.292 C 28.999 21.360,28.767 22.504,28.483 23.833 C 28.200 25.162,27.908 26.550,27.833 26.917 C 27.759 27.283,27.459 28.671,27.167 30.000 C 26.874 31.329,26.574 32.717,26.499 33.083 C 26.224 34.428,25.500 37.793,25.154 39.333 C 24.806 40.881,24.699 41.386,24.365 43.083 C 24.275 43.542,24.043 44.624,23.850 45.488 C 23.658 46.353,23.500 47.084,23.500 47.113 C 23.500 47.143,26.089 47.167,29.253 47.167 L 35.006 47.167 34.925 46.792 C 34.608 45.323,34.110 42.972,33.997 42.417 C 33.769 41.286,33.028 37.832,32.657 36.167 C 32.462 35.296,32.163 33.908,31.992 33.083 C 31.820 32.258,31.519 30.871,31.323 30.000 C 31.126 29.129,30.892 28.042,30.802 27.583 C 30.461 25.855,30.359 25.375,30.008 23.833 C 29.809 22.962,29.604 22.006,29.552 21.708 C 29.472 21.254,29.001 20.899,28.999 21.292 M67.000 51.521 L 67.000 60.209 70.792 60.119 C 78.497 59.937,80.825 57.933,80.831 51.480 C 80.837 44.869,78.415 42.833,70.542 42.833 L 67.000 42.833 67.000 51.521 " stroke="none" fill="#343434" fill-rule="evenodd"></path><path id="path1" d="" stroke="none" fill="#383434" fill-rule="evenodd"></path><path id="path2" d="" stroke="none" fill="#383434" fill-rule="evenodd"></path><path id="path3" d="" stroke="none" fill="#383434" fill-rule="evenodd"></path><path id="path4" d="" stroke="none" fill="#383434" fill-rule="evenodd"></path></g></svg>