<svg xmlns="http://www.w3.org/2000/svg" height="800" width="1200" viewBox="-4.21974 -7.0329 36.57108 42.1974"><path fill="#00008f" d="M.0002.0002h28.1314v28.1314H.0002z"/><path fill="#ff1721" d="M28.1316 0h-1.5802L15.817 13.8928h1.6155z"/><path d="M21.4953 20.0925c.4904 1.3718 1.5008 4.9417 1.9024 5.2261h-2.6525a4.4233 4.4233 0 00-.1245-.9362c-.1144-.408-1.0739-3.4948-1.0739-3.4948h-4.2133l-.6625.9392s.7957 2.4907.8451 2.6128c.0858.22.4657.879.4657.879h-2.542s-.066-.3804-.0907-.5388c-.0199-.128-.2408-.8286-.2408-.8286s-.5762.6313-.7332.924c-.1585.2922-.2287.4434-.2287.4434h-1.9887s-.0664-.3804-.0911-.5388c-.0194-.128-.2627-.8849-.2627-.8849s-.5567.676-.7152.9682c-.1575.2927-.2253.4555-.2253.4555H6.8965s.5558-.5291.7501-.7564c.3276-.3853 1.5482-1.9805 1.5482-1.9805l-.4894-1.694H4.524s-2.384 3.1326-2.478 3.2295c-.095.0955-.79 1.0928-.8055 1.2013H0v-.7889a.5941.5941 0 01.049-.0475c.0382-.028 1.8074-2.2242 3.4327-4.3897 1.4605-1.8884 2.8309-3.725 2.951-3.9.2913-.423.711-1.3363.711-1.3363h2.1616s.0669.8402.13 1.0442c.056.1802 1.3732 4.5017 1.4042 4.5482l.7283-.9313-1.2449-3.832s-.2917-.7211-.3867-.8291h2.5252a2.1998 2.1998 0 00.0823.6866c.1028.316.644 2.2693.644 2.2693s1.7222-2.1588 1.823-2.314a1.3993 1.3993 0 00.2127-.642h2.104s-.3851.2816-1.0602 1.1354c-.2268.2873-2.4486 3.111-2.4486 3.111s.194.661.2884.99c.0257.0944.0436.1584.0436.1652 0 .003.049-.0572.1332-.1652.5733-.7264 3.1808-4.1456 3.3388-4.4383.1274-.2364.315-.5054.425-.798h2.0526s.0475.613.11.7825zm-3.1236-3.2365c-.3014.6484-2.0754 2.808-2.0754 2.808h2.8096s-.5447-1.677-.6396-2.055a3.0003 3.0003 0 01-.0553-.7346c0-.0344-.0063-.0901-.0393-.0184zm-10.7949 0c-.3014.6484-2.0754 2.808-2.0754 2.808H8.311s-.5442-1.677-.6392-2.055a3.0003 3.0003 0 01-.0552-.7346c0-.0344-.0068-.0901-.0398-.0184zm4.23 6.5485l.7733-1.0621c-.0712-.0766-.5069-1.3976-.5069-1.3976l-.7477.9701z" fill="#fff"/></svg>