<?xml version="1.0" standalone="no"?>
<!DOCTYPE svg PUBLIC "-//W3C//DTD SVG 20010904//EN"
 "http://www.w3.org/TR/2001/REC-SVG-20010904/DTD/svg10.dtd">
<svg version="1.0" xmlns="http://www.w3.org/2000/svg"
 width="1076.000000pt" height="226.000000pt" viewBox="0 0 1076.000000 226.000000"
 preserveAspectRatio="xMidYMid meet">

<g transform="translate(0.000000,226.000000) scale(0.100000,-0.100000)"
fill="#fff" stroke="none">
<path d="M2675 2110 c-33 -4 -78 -12 -100 -18 -58 -17 -154 -76 -196 -122 -50
-55 -106 -164 -125 -246 -22 -95 -15 -261 13 -324 68 -149 240 -202 487 -151
54 11 103 24 107 28 9 9 99 421 99 453 0 19 -8 20 -178 20 l-179 0 -16 -78
c-25 -117 -27 -112 47 -112 l63 0 -14 -62 c-8 -35 -16 -64 -17 -66 -9 -8 -116
-2 -135 7 -97 52 -59 323 59 424 83 71 163 74 312 12 14 -5 25 9 57 74 23 44
41 87 41 95 0 17 -90 53 -153 61 -83 11 -113 12 -172 5z"/>
<path d="M3470 2109 c-208 -26 -359 -206 -390 -468 -24 -192 34 -322 170 -385
68 -31 242 -30 323 3 126 50 234 191 272 356 25 104 17 274 -14 335 -46 89
-118 144 -203 155 -84 11 -94 12 -158 4z m99 -204 c40 -20 56 -67 54 -157 -2
-88 -36 -199 -79 -255 -33 -43 -102 -76 -141 -67 -68 16 -99 80 -89 181 22
213 144 356 255 298z"/>
<path d="M9673 2109 c-143 -18 -263 -110 -327 -251 -40 -87 -54 -143 -63 -242
-14 -173 47 -304 167 -359 83 -38 265 -33 371 10 l39 15 0 94 c0 52 -4 94 -8
94 -5 0 -33 -8 -63 -19 -87 -29 -158 -35 -199 -14 -55 28 -72 72 -67 173 8
140 62 246 148 290 51 27 102 25 174 -6 100 -43 91 -46 135 50 22 47 40 89 40
92 0 14 -135 64 -187 69 -32 4 -67 8 -78 9 -11 2 -48 -1 -82 -5z"/>
<path d="M10277 2096 c-103 -37 -162 -105 -179 -208 -9 -53 -8 -73 6 -123 16
-54 27 -69 117 -156 104 -102 113 -119 80 -160 -27 -34 -114 -31 -202 6 -109
45 -99 52 -99 -68 l0 -106 58 -22 c47 -19 76 -23 172 -23 100 -1 122 2 168 23
63 29 128 98 143 154 6 22 10 67 10 100 0 91 -35 152 -127 228 -79 65 -94 84
-94 123 0 60 77 74 181 31 l61 -24 39 85 c21 46 39 88 39 92 0 9 -47 29 -115
48 -63 17 -208 17 -258 0z"/>
<path d="M186 2083 c-6 -18 -36 -161 -36 -169 0 -2 40 -4 90 -4 50 0 90 -4 90
-9 0 -5 -29 -150 -65 -322 -36 -172 -65 -318 -65 -326 0 -10 26 -13 115 -13
111 0 115 1 120 23 3 12 32 153 65 312 33 160 62 300 65 313 5 21 10 22 100
22 69 0 95 3 95 13 0 6 9 49 19 95 l19 82 -303 0 c-280 0 -304 -1 -309 -17z"/>
<path d="M915 2078 c-10 -42 -175 -828 -175 -833 0 -3 53 -4 117 -3 l118 3 27
130 c38 182 36 175 57 175 15 0 30 -31 76 -155 l57 -155 129 0 128 0 -33 78
c-19 42 -52 119 -75 171 -46 107 -48 117 -22 126 30 9 92 77 114 124 30 68 28
183 -4 241 -51 94 -129 120 -351 120 -155 0 -158 0 -163 -22z m286 -179 c30
-30 22 -104 -15 -136 -25 -21 -91 -41 -102 -30 -5 5 19 134 31 175 7 20 63 14
86 -9z"/>
<path d="M1695 2078 c-10 -42 -175 -828 -175 -833 0 -3 116 -4 257 -3 l257 3
18 80 c9 44 18 86 18 93 0 9 -34 12 -135 12 -153 0 -143 -8 -122 95 l13 60
130 3 130 3 18 77 c10 42 20 85 22 95 5 16 -6 17 -125 17 -72 0 -131 3 -131 8
1 4 7 32 14 62 l12 55 141 3 140 3 17 82 c9 45 16 88 16 95 0 9 -58 12 -255
12 l-255 0 -5 -22z"/>
<path d="M4402 1768 c-203 -398 -262 -516 -262 -523 0 -3 54 -5 120 -5 l120 0
36 80 37 80 128 0 129 0 0 -57 c0 -106 -4 -103 121 -103 l109 0 0 33 c0 40
-59 750 -66 795 l-5 32 -149 0 -148 0 -170 -332z m297 -75 l1 -103 -80 0 -79
0 36 78 c19 42 52 115 72 161 l36 83 6 -58 c4 -33 7 -105 8 -161z"/>
<path d="M5215 2088 c-6 -19 -175 -826 -175 -838 0 -6 42 -10 103 -10 l103 0
39 183 c21 100 45 234 55 297 l16 115 84 -298 84 -297 136 0 136 0 63 298 c34
163 75 357 90 430 l28 133 -105 -3 -106 -3 -42 -200 c-23 -110 -48 -236 -56
-280 l-13 -80 -64 220 c-35 121 -72 248 -83 283 l-19 62 -135 0 c-99 0 -136
-3 -139 -12z"/>
<path d="M6162 1768 c-203 -398 -262 -516 -262 -523 0 -3 54 -5 120 -5 l120 0
36 80 37 80 128 0 129 0 0 -57 c0 -106 -4 -103 121 -103 l109 0 0 33 c0 40
-59 750 -66 795 l-5 32 -149 0 -148 0 -170 -332z m297 -75 l1 -103 -80 0 -79
0 36 78 c19 42 52 115 72 161 l36 83 6 -58 c4 -33 7 -105 8 -161z"/>
<path d="M6975 2088 c-6 -19 -175 -826 -175 -838 0 -6 93 -10 255 -10 l255 0
5 23 c26 112 35 153 35 160 0 4 -60 7 -133 7 -74 0 -136 2 -139 5 -2 3 26 150
64 327 37 178 68 326 68 331 0 4 -52 7 -115 7 -84 0 -117 -3 -120 -12z"/>
<path d="M7510 2090 c0 -6 30 -123 67 -262 l67 -252 -29 -135 c-16 -75 -30
-151 -33 -168 l-4 -33 116 0 c64 0 116 2 116 4 0 3 16 78 35 167 l35 161 107
157 c58 86 140 204 180 264 l75 107 -134 0 -133 0 -85 -149 c-46 -82 -87 -148
-89 -145 -4 3 -51 268 -51 287 0 4 -54 7 -120 7 -74 0 -120 -4 -120 -10z"/>
<path d="M8265 2088 c-6 -17 -35 -156 -35 -169 0 -5 41 -9 90 -9 50 0 90 -3
90 -7 -1 -5 -32 -154 -69 -333 l-68 -325 115 -3 c63 -1 116 -1 118 0 1 2 33
152 71 333 l69 330 94 5 94 5 18 75 c9 41 17 83 18 93 0 16 -21 17 -300 17
-231 0 -302 -3 -305 -12z"/>
<path d="M8995 2088 c-6 -19 -175 -826 -175 -838 0 -6 45 -10 114 -10 101 0
115 2 120 18 7 22 176 826 176 835 0 4 -52 7 -115 7 -84 0 -117 -3 -120 -12z"/>
<path d="M1215 688 c-5 -16 -95 -441 -95 -451 0 -4 8 -7 18 -7 14 0 24 34 61
213 25 116 47 222 49 235 3 16 0 22 -12 22 -9 0 -19 -6 -21 -12z"/>
<path d="M2006 683 c-2 -10 -12 -53 -21 -96 l-17 -77 -19 24 c-39 50 -125 41
-178 -19 -68 -78 -81 -243 -21 -275 46 -24 122 -6 158 38 10 13 12 11 12 -16
0 -20 5 -32 13 -32 9 0 28 68 60 223 26 122 47 228 47 235 0 19 -28 14 -34 -5z
m-72 -175 c23 -32 19 -95 -8 -154 -56 -121 -176 -128 -176 -10 0 59 21 115 56
152 26 28 39 34 72 34 31 0 45 -5 56 -22z"/>
<path d="M2516 683 c-2 -10 -12 -53 -21 -96 l-17 -77 -19 24 c-39 50 -125 41
-178 -19 -68 -78 -81 -243 -21 -275 46 -24 122 -6 158 38 10 13 12 11 12 -16
0 -20 5 -32 13 -32 9 0 28 68 60 223 26 122 47 228 47 235 0 19 -28 14 -34 -5z
m-72 -175 c23 -32 19 -95 -8 -154 -56 -121 -176 -128 -176 -10 0 59 21 115 56
152 26 28 39 34 72 34 31 0 45 -5 56 -22z"/>
<path d="M5810 390 c0 -269 2 -310 15 -310 13 0 15 41 15 310 0 269 -2 310
-15 310 -13 0 -15 -41 -15 -310z"/>
<path d="M9540 390 c0 -269 2 -310 15 -310 13 0 15 41 15 310 0 269 -2 310
-15 310 -13 0 -15 -41 -15 -310z"/>
<path d="M1347 673 c-15 -14 -7 -43 12 -43 20 0 35 25 25 41 -6 11 -28 12 -37
2z"/>
<path d="M4216 663 c-4 -9 -2 -21 3 -26 15 -15 41 0 41 23 0 25 -35 28 -44 3z"/>
<path d="M7196 663 c-4 -9 -2 -21 3 -26 15 -15 41 0 41 23 0 25 -35 28 -44 3z"/>
<path d="M8527 673 c-15 -14 -7 -43 12 -43 20 0 35 25 25 41 -6 11 -28 12 -37
2z"/>
<path d="M9939 453 l-46 -218 79 -3 c132 -5 198 26 218 99 13 49 1 94 -31 117
-21 15 -21 15 10 28 60 25 78 126 30 170 -17 15 -40 20 -118 22 l-96 4 -46
-219z m225 166 c45 -36 30 -100 -29 -125 -19 -8 -61 -14 -93 -14 l-60 0 14 68
c20 97 16 92 82 92 45 0 66 -5 86 -21z m-26 -204 c37 -43 22 -104 -32 -132
-37 -19 -166 -31 -166 -15 0 14 29 153 35 171 4 11 20 13 73 8 55 -5 71 -11
90 -32z"/>
<path d="M10311 471 c-23 -110 -45 -209 -48 -220 -4 -16 -1 -21 14 -21 17 0
24 24 62 203 23 111 45 210 47 220 4 12 0 17 -14 17 -16 0 -24 -25 -61 -199z"/>
<path d="M2978 601 c-11 -27 -23 -40 -39 -43 -33 -5 -37 -28 -4 -28 20 0 25
-4 21 -17 -2 -10 -15 -66 -27 -125 -21 -101 -21 -108 -5 -132 14 -22 24 -26
61 -26 33 0 45 4 45 15 0 11 -11 15 -35 15 -23 0 -38 6 -42 16 -3 8 5 68 18
132 l24 117 48 3 c33 2 47 7 47 18 0 10 -12 14 -41 14 l-42 0 6 40 c7 53 -15
54 -35 1z"/>
<path d="M198 554 c-38 -16 -76 -65 -96 -123 -26 -74 -7 -179 33 -195 37 -14
89 -6 122 20 l33 25 0 -25 c0 -15 6 -26 13 -26 9 0 24 48 45 153 37 174 37
177 17 177 -8 0 -15 -8 -15 -18 0 -31 -10 -31 -40 -1 -32 32 -58 35 -112 13z
m106 -46 c50 -71 -30 -248 -112 -248 -43 0 -62 26 -62 87 0 101 54 183 121
183 28 0 42 -6 53 -22z"/>
<path d="M575 554 c-16 -8 -38 -23 -49 -32 -18 -16 -19 -16 -14 11 4 20 1 27
-11 27 -13 0 -25 -43 -64 -227 -26 -126 -48 -231 -47 -235 0 -5 7 -8 15 -8 15
0 24 28 45 132 l11 58 22 -25 c21 -24 44 -30 99 -27 42 3 94 56 118 118 38
102 21 191 -41 213 -41 14 -48 14 -84 -5z m87 -41 c24 -22 24 -114 -1 -169
-51 -113 -181 -114 -181 -1 0 52 38 136 75 165 33 26 81 28 107 5z"/>
<path d="M925 554 c-16 -8 -38 -23 -49 -32 -18 -16 -19 -16 -14 11 4 20 1 27
-11 27 -13 0 -25 -43 -64 -227 -26 -126 -48 -231 -47 -235 0 -5 7 -8 15 -8 15
0 24 28 45 132 l11 58 22 -25 c21 -24 44 -30 99 -27 42 3 94 56 118 118 38
102 21 191 -41 213 -41 14 -48 14 -84 -5z m87 -41 c24 -22 24 -114 -1 -169
-51 -113 -181 -114 -181 -1 0 52 38 136 75 165 33 26 81 28 107 5z"/>
<path d="M1536 560 c-94 -29 -155 -181 -111 -274 19 -40 45 -56 92 -58 62 -2
103 11 103 33 0 16 -4 17 -26 9 -14 -6 -43 -10 -64 -10 -47 0 -80 35 -80 86 0
29 3 34 25 34 51 0 127 23 155 47 24 19 30 33 30 62 0 61 -56 92 -124 71z m84
-51 c9 -16 8 -26 -5 -45 -18 -28 -43 -39 -108 -49 -44 -7 -47 -6 -47 15 0 13
17 39 39 61 46 46 102 55 121 18z"/>
<path d="M2685 556 c-113 -49 -157 -281 -62 -321 40 -17 91 -4 128 31 l29 28
-6 -32 c-5 -25 -3 -32 9 -32 11 0 19 17 27 58 7 31 23 104 35 162 13 58 22
107 20 109 -10 10 -35 -11 -35 -30 0 -20 -2 -19 -35 10 -39 34 -63 37 -110 17z
m97 -43 c24 -22 24 -104 -1 -158 -37 -83 -121 -122 -155 -73 -33 47 -13 159
40 214 36 39 84 46 116 17z"/>
<path d="M3235 563 c-72 -19 -125 -110 -125 -214 0 -84 24 -119 81 -121 36 -1
102 31 113 55 3 7 4 -3 3 -21 -3 -26 0 -32 12 -30 12 2 24 42 48 153 18 83 32
156 33 163 0 23 -28 12 -34 -13 l-7 -26 -22 26 c-22 26 -66 38 -102 28z m91
-58 c34 -52 -8 -188 -70 -229 -27 -17 -63 -21 -83 -8 -51 32 -31 178 33 237
38 35 97 35 120 0z"/>
<path d="M3670 553 c-41 -21 -58 -60 -44 -100 5 -16 34 -44 69 -68 67 -45 78
-72 45 -105 -18 -18 -31 -21 -73 -18 -29 3 -60 8 -69 12 -14 6 -18 3 -18 -13
0 -17 8 -22 43 -28 23 -4 48 -7 55 -6 6 0 23 1 36 2 42 2 78 41 79 85 1 40
-12 55 -102 124 -35 26 -39 52 -14 77 13 13 31 16 81 13 42 -2 67 1 69 8 10
29 -110 41 -157 17z"/>
<path d="M3970 548 c-104 -53 -138 -247 -53 -303 41 -27 153 -20 153 10 0 10
-14 12 -57 8 -53 -5 -60 -3 -83 21 -51 56 -14 205 59 236 16 6 51 10 78 8 37
-2 48 0 48 12 0 15 -32 27 -75 29 -14 1 -46 -9 -70 -21z"/>
<path d="M4390 548 c-83 -43 -128 -185 -85 -268 20 -39 43 -50 102 -50 67 0
93 9 93 31 0 16 -4 17 -26 9 -76 -29 -136 0 -149 73 -7 36 -7 37 23 37 106 0
192 48 192 108 0 70 -74 99 -150 60z m108 -55 c3 -27 -2 -36 -28 -52 -32 -19
-117 -37 -127 -27 -11 11 9 56 38 86 27 26 38 31 73 28 38 -3 41 -5 44 -35z"/>
<path d="M4740 559 c-14 -6 -35 -20 -47 -31 l-23 -21 0 26 c0 17 -5 27 -15 27
-8 0 -15 -2 -15 -5 0 -8 -60 -289 -66 -307 -4 -13 0 -18 15 -18 16 0 23 14 41
98 13 53 28 109 36 123 21 42 72 79 108 79 64 0 68 -27 32 -192 -23 -103 -23
-108 -6 -108 21 0 22 1 49 132 26 119 26 150 4 177 -21 25 -77 35 -113 20z"/>
<path d="M5056 560 c-82 -26 -146 -165 -116 -255 17 -52 52 -75 116 -75 61 0
84 7 84 26 0 11 -12 12 -57 8 -48 -5 -62 -3 -81 13 -53 42 -35 174 31 229 27
23 38 26 89 22 40 -3 59 0 62 9 3 7 2 14 -2 17 -17 10 -99 14 -126 6z"/>
<path d="M5336 560 c-114 -34 -167 -241 -79 -310 18 -14 41 -20 79 -20 65 0
84 7 84 31 0 16 -4 17 -26 9 -75 -29 -144 6 -144 73 l0 34 63 7 c34 4 77 15
96 23 69 33 74 129 9 152 -35 13 -42 13 -82 1z m84 -45 c20 -24 3 -65 -33 -80
-48 -20 -127 -30 -127 -16 0 22 29 69 56 90 31 24 86 28 104 6z"/>
<path d="M6273 551 c-52 -24 -91 -81 -102 -151 -20 -125 34 -187 147 -170 47
8 68 22 58 39 -5 8 -13 8 -26 1 -21 -11 -80 -13 -105 -4 -20 8 -45 56 -45 87
0 22 5 25 62 31 112 11 168 58 153 127 -5 23 -16 35 -41 45 -43 18 -50 18
-101 -5z m95 -33 c22 -22 14 -57 -19 -77 -29 -18 -126 -37 -136 -27 -9 9 30
77 55 96 28 22 82 26 100 8z"/>
<path d="M6620 559 c-14 -6 -35 -20 -47 -31 l-23 -21 0 26 c0 17 -5 27 -15 27
-8 0 -15 -2 -15 -5 0 -8 -60 -289 -66 -307 -4 -13 0 -18 15 -18 16 0 23 14 41
98 13 53 28 109 36 123 21 42 72 79 108 79 64 0 68 -27 32 -192 -23 -103 -23
-108 -6 -108 21 0 22 1 49 132 26 119 26 150 4 177 -21 25 -77 35 -113 20z"/>
<path d="M6917 556 c-21 -8 -40 -16 -41 -18 -39 -52 -48 -116 -22 -154 13 -18
13 -22 -6 -38 -14 -13 -19 -26 -16 -47 4 -24 0 -33 -23 -46 -58 -34 -66 -110
-16 -147 22 -17 42 -21 91 -20 99 2 156 43 156 111 0 45 -28 70 -87 78 -56 7
-93 21 -93 34 0 21 33 41 68 41 80 0 145 77 124 147 -10 33 -10 33 24 33 24 0
34 5 34 15 0 11 -12 15 -49 15 -27 0 -61 2 -77 5 -16 3 -46 -1 -67 -9z m81
-32 c36 -25 26 -98 -17 -131 -29 -22 -79 -16 -97 12 -25 39 -5 101 39 120 41
18 48 18 75 -1z m-6 -302 c18 -18 20 -25 10 -46 -17 -39 -56 -59 -117 -60 -92
-1 -122 49 -65 106 29 28 35 30 91 26 44 -3 65 -10 81 -26z"/>
<path d="M7415 561 c-11 -5 -32 -21 -48 -36 l-27 -28 6 32 c5 24 3 31 -9 31
-19 0 -19 -1 -52 -160 -14 -69 -28 -135 -32 -148 -4 -17 -1 -22 14 -22 17 0
23 13 38 83 24 112 41 152 82 187 27 25 43 30 70 28 57 -5 60 -21 34 -150 -12
-62 -25 -121 -27 -130 -4 -13 0 -18 14 -18 22 0 22 0 58 180 13 66 14 91 5
113 -16 40 -75 58 -126 38z"/>
<path d="M7736 560 c-114 -34 -167 -241 -79 -310 18 -14 41 -20 79 -20 65 0
84 7 84 31 0 16 -4 17 -26 9 -75 -29 -144 6 -144 73 l0 34 63 7 c34 4 77 15
96 23 69 33 74 129 9 152 -35 13 -42 13 -82 1z m84 -45 c20 -24 3 -65 -33 -80
-48 -20 -127 -30 -127 -16 0 22 29 69 56 90 31 24 86 28 104 6z"/>
<path d="M8023 551 c-52 -24 -91 -81 -102 -151 -20 -125 34 -187 147 -170 47
8 68 22 58 39 -5 8 -13 8 -26 1 -21 -11 -80 -13 -105 -4 -20 8 -45 56 -45 87
0 22 5 25 62 31 112 11 168 58 153 127 -5 23 -16 35 -41 45 -43 18 -50 18
-101 -5z m95 -33 c22 -22 14 -57 -19 -77 -29 -18 -126 -37 -136 -27 -9 9 30
77 55 96 28 22 82 26 100 8z"/>
<path d="M8365 561 c-11 -5 -32 -21 -48 -36 l-27 -28 6 32 c5 24 3 31 -10 31
-8 0 -18 -10 -21 -22 -3 -13 -16 -77 -30 -143 -14 -66 -27 -130 -30 -142 -4
-18 -1 -23 13 -23 15 0 22 15 36 83 32 148 77 217 141 217 35 0 55 24 29 34
-20 8 -34 7 -59 -3z"/>
<path d="M8740 559 c-14 -6 -35 -20 -47 -31 l-23 -21 0 26 c0 17 -5 27 -15 27
-8 0 -15 -2 -15 -5 0 -8 -60 -289 -66 -307 -4 -13 0 -18 15 -18 16 0 23 14 41
98 13 53 28 109 36 123 21 42 72 79 108 79 64 0 68 -27 32 -192 -23 -103 -23
-108 -6 -108 21 0 22 1 49 132 26 119 26 150 4 177 -21 25 -77 35 -113 20z"/>
<path d="M9037 556 c-21 -8 -40 -16 -41 -18 -39 -52 -48 -116 -22 -154 13 -18
13 -22 -6 -38 -14 -13 -19 -26 -16 -47 4 -24 0 -33 -23 -46 -58 -34 -66 -110
-16 -147 22 -17 42 -21 91 -20 99 2 156 43 156 111 0 45 -28 70 -87 78 -56 7
-93 21 -93 34 0 21 33 41 68 41 80 0 145 77 124 147 -10 33 -10 33 24 33 24 0
34 5 34 15 0 11 -12 15 -49 15 -27 0 -61 2 -77 5 -16 3 -46 -1 -67 -9z m81
-32 c36 -25 26 -98 -17 -131 -29 -22 -79 -16 -97 12 -25 39 -5 101 39 120 41
18 48 18 75 -1z m-6 -302 c18 -18 20 -25 10 -46 -17 -39 -56 -59 -117 -60 -92
-1 -122 49 -65 106 29 28 35 30 91 26 44 -3 65 -10 81 -26z"/>
<path d="M1292 403 c-18 -87 -33 -161 -32 -165 0 -16 29 -7 34 10 6 18 66 299
66 307 0 3 -8 5 -18 5 -15 0 -23 -25 -50 -157z"/>
<path d="M4195 538 c-3 -13 -16 -77 -30 -143 -14 -66 -27 -130 -30 -142 -4
-18 -1 -23 15 -23 11 0 20 6 20 13 1 6 16 81 34 165 30 141 31 152 15 152 -11
0 -21 -9 -24 -22z"/>
<path d="M7175 538 c-3 -13 -16 -77 -30 -143 -14 -66 -27 -130 -30 -142 -4
-18 -1 -23 15 -23 11 0 20 6 20 13 1 6 16 81 34 165 30 141 31 152 15 152 -11
0 -21 -9 -24 -22z"/>
<path d="M8472 403 c-18 -87 -33 -161 -32 -165 0 -16 29 -7 34 10 6 18 66 299
66 307 0 3 -8 5 -18 5 -15 0 -23 -25 -50 -157z"/>
</g>
</svg>