<svg id="svg" xmlns="http://www.w3.org/2000/svg" xmlns:xlink="http://www.w3.org/1999/xlink" width="400" height="100" viewBox="0, 0, 400,98.0169971671388"><g id="svgg"><path id="path0" d="M267.139 1.561 C 242.801 4.839,226.651 22.400,223.104 49.444 C 220.293 70.883,227.666 86.424,243.199 91.799 C 252.847 95.137,271.233 94.217,286.284 89.642 L 288.574 88.946 289.912 82.504 C 293.213 66.617,298.622 40.890,298.756 40.443 C 298.894 39.980,297.796 39.947,280.088 39.877 L 261.274 39.802 259.243 49.008 C 258.126 54.072,257.215 58.311,257.218 58.428 C 257.221 58.545,260.390 58.640,264.260 58.640 L 271.296 58.640 269.749 65.652 C 267.919 73.940,268.534 73.004,264.568 73.542 C 250.772 75.412,244.982 67.802,247.467 51.066 C 251.321 25.112,269.973 14.299,291.643 25.454 C 292.734 26.016,293.722 26.478,293.839 26.481 C 294.031 26.487,295.801 22.902,301.283 11.409 L 303.070 7.662 301.245 6.693 C 292.694 2.153,278.549 0.024,267.139 1.561 M352.274 1.583 C 328.766 5.236,312.903 25.696,311.061 54.737 C 309.349 81.742,324.997 96.619,351.834 93.499 C 375.270 90.774,391.637 69.924,393.456 40.474 C 395.154 12.988,378.725 -2.527,352.274 1.583 M83.997 2.550 C 83.950 2.627,83.648 3.966,83.325 5.524 C 83.003 7.082,82.345 10.205,81.864 12.465 C 80.940 16.806,80.873 17.127,79.888 21.813 C 79.544 23.449,79.034 25.871,78.754 27.195 C 78.473 28.520,77.963 30.942,77.619 32.578 C 76.600 37.430,76.554 37.647,75.638 41.926 C 75.154 44.186,74.644 46.608,74.504 47.309 C 74.364 48.010,73.869 50.368,73.404 52.550 C 72.939 54.731,71.333 62.316,69.835 69.405 C 68.337 76.494,66.919 83.187,66.684 84.278 C 66.449 85.368,66.000 87.472,65.685 88.952 C 65.370 90.432,65.049 91.868,64.972 92.142 C 64.840 92.613,65.497 92.637,76.951 92.567 L 89.070 92.493 89.396 90.935 C 89.575 90.078,90.137 87.401,90.645 84.986 C 91.153 82.571,91.675 80.085,91.804 79.462 C 91.933 78.839,92.434 76.480,92.917 74.221 C 93.401 71.962,93.915 69.540,94.059 68.839 C 94.204 68.137,94.588 66.353,94.913 64.873 C 95.237 63.392,95.578 61.735,95.671 61.190 C 95.889 59.897,96.105 59.783,98.336 59.778 C 100.720 59.772,100.201 58.878,104.252 69.972 C 106.159 75.191,108.071 80.418,108.502 81.586 C 108.934 82.755,110.017 85.719,110.911 88.173 L 112.536 92.635 125.658 92.635 L 138.781 92.635 138.394 91.714 C 137.976 90.722,137.731 90.155,130.174 72.663 C 127.414 66.275,124.591 59.735,123.902 58.130 C 122.470 54.796,122.437 55.002,124.581 53.794 C 134.016 48.476,138.759 41.334,139.692 31.042 C 141.146 14.992,133.772 5.849,117.139 3.078 C 115.169 2.749,84.172 2.256,83.997 2.550 M166.508 2.494 C 166.208 2.552,165.964 3.110,165.767 4.194 C 165.606 5.081,165.077 7.656,164.592 9.915 C 164.107 12.174,163.602 14.533,163.471 15.156 C 163.340 15.779,162.951 17.627,162.606 19.263 C 162.262 20.899,161.873 22.748,161.741 23.371 C 161.610 23.994,161.107 26.353,160.624 28.612 C 160.140 30.871,159.630 33.293,159.490 33.994 C 159.350 34.695,158.840 37.118,158.357 39.377 C 157.874 41.636,157.363 44.058,157.223 44.759 C 157.082 45.460,156.191 49.667,155.244 54.108 C 154.296 58.548,152.689 66.133,151.672 70.963 C 149.874 79.508,149.526 81.153,148.026 88.230 C 147.632 90.092,147.309 91.846,147.309 92.127 C 147.309 92.616,148.444 92.634,173.999 92.565 L 200.689 92.493 202.600 83.428 C 203.651 78.442,204.516 74.012,204.522 73.584 L 204.533 72.805 190.132 72.805 C 182.212 72.805,175.667 72.740,175.588 72.661 C 175.510 72.582,175.808 70.766,176.253 68.624 C 176.697 66.483,177.443 62.836,177.911 60.519 C 178.378 58.203,178.831 56.195,178.916 56.058 C 179.002 55.918,185.087 55.807,192.621 55.807 C 205.071 55.807,206.187 55.769,206.355 55.330 C 206.456 55.067,207.058 52.549,207.694 49.735 C 209.061 43.678,209.197 43.070,209.597 41.218 C 209.765 40.439,210.079 39.072,210.295 38.181 C 210.510 37.290,210.619 36.493,210.537 36.410 C 210.455 36.328,204.353 36.261,196.978 36.261 L 183.569 36.261 183.572 35.623 C 183.573 35.036,185.571 25.037,186.076 23.088 L 186.296 22.238 201.003 22.096 L 215.710 21.955 217.616 12.748 C 218.664 7.684,219.527 3.319,219.534 3.048 C 219.546 2.604,168.695 2.073,166.508 2.494 M6.295 5.595 C 5.954 7.270,5.412 9.851,5.091 11.331 C 4.769 12.812,4.387 14.596,4.242 15.297 C 4.097 15.999,3.720 17.771,3.405 19.236 C 3.090 20.701,2.833 22.007,2.833 22.139 C 2.833 22.271,7.167 22.380,12.465 22.380 C 21.165 22.380,22.096 22.424,22.096 22.840 C 22.096 23.256,21.554 25.994,20.111 32.861 C 19.833 34.186,19.215 37.181,18.738 39.518 C 18.262 41.856,17.478 45.616,16.997 47.875 C 16.515 50.135,15.878 53.194,15.581 54.674 C 15.283 56.154,13.561 64.441,11.754 73.088 C 9.946 81.735,8.345 89.448,8.195 90.227 C 8.045 91.006,7.852 91.868,7.766 92.142 C 7.617 92.614,8.268 92.637,19.734 92.567 L 31.860 92.493 32.036 91.501 C 32.235 90.374,33.557 83.984,34.848 77.904 C 35.327 75.644,35.964 72.585,36.263 71.105 C 36.562 69.625,37.326 65.928,37.962 62.890 C 38.597 59.851,39.234 56.792,39.376 56.091 C 39.519 55.390,40.157 52.330,40.793 49.292 C 41.430 46.254,42.333 41.919,42.801 39.660 C 43.269 37.401,44.260 32.620,45.004 29.037 L 46.357 22.521 56.171 22.447 L 65.986 22.372 66.262 21.314 C 66.414 20.731,66.752 19.235,67.014 17.989 C 67.276 16.742,67.590 15.276,67.711 14.731 C 67.832 14.186,68.085 13.038,68.272 12.181 C 68.459 11.324,68.714 10.177,68.839 9.632 C 69.087 8.542,69.610 6.156,69.988 4.391 C 70.121 3.768,70.236 3.098,70.243 2.904 C 70.252 2.622,63.739 2.550,38.585 2.550 L 6.915 2.550 6.295 5.595 M110.710 21.370 C 117.170 23.090,117.551 34.728,111.288 39.023 C 108.642 40.837,100.595 42.501,100.144 41.327 C 100.021 41.005,103.590 23.234,104.135 21.459 C 104.331 20.821,108.437 20.765,110.710 21.370 M361.767 21.674 C 367.367 23.647,369.664 29.475,369.077 40.227 C 367.933 61.199,356.789 76.403,344.567 73.668 C 338.095 72.219,335.344 67.619,335.372 58.287 C 335.439 35.504,348.721 17.080,361.767 21.674 " stroke="none" fill="#FFF" fill-rule="nonzero"></path></g></svg>