<svg id="svg" xmlns="http://www.w3.org/2000/svg" xmlns:xlink="http://www.w3.org/1999/xlink" width="400" height="47.247247247247245" viewBox="0, 0, 400,47.247247247247245"><g id="svgg"><path id="path0" d="M100.067 8.322 C 91.814 9.815,86.452 16.750,86.138 26.335 C 85.788 37.055,91.876 41.291,104.233 38.927 C 106.015 38.586,108.509 37.876,108.509 37.710 C 108.509 37.649,108.785 36.324,109.123 34.765 C 109.461 33.207,109.954 30.896,110.218 29.630 C 110.483 28.363,110.972 26.050,111.306 24.489 C 111.639 22.928,111.912 21.509,111.912 21.336 C 111.912 21.056,111.198 21.021,105.509 21.021 L 99.107 21.021 99.007 21.471 C 98.451 23.971,97.698 27.462,97.698 27.535 C 97.698 27.586,98.785 27.628,100.114 27.628 C 102.332 27.628,102.520 27.656,102.417 27.981 C 102.355 28.176,102.119 29.190,101.891 30.234 C 101.378 32.593,101.483 32.501,99.253 32.518 C 94.997 32.551,93.509 29.477,94.889 23.504 C 96.619 16.016,102.186 13.081,108.869 16.133 L 110.331 16.800 111.729 13.864 C 113.640 9.849,113.630 10.199,111.852 9.452 C 108.655 8.110,103.806 7.645,100.067 8.322 M128.969 8.324 C 121.151 10.036,116.063 17.508,116.028 27.327 C 116.001 34.810,119.154 38.649,125.961 39.421 C 133.817 40.312,141.017 35.168,142.960 27.277 C 143.102 26.699,143.269 26.226,143.331 26.226 C 143.393 26.226,143.452 26.024,143.462 25.776 C 143.472 25.528,143.584 24.740,143.711 24.024 C 145.664 12.983,139.188 6.086,128.969 8.324 M350.050 8.334 C 337.676 10.925,332.376 32.672,342.763 38.231 C 345.861 39.889,352.161 39.903,356.456 38.263 L 357.858 37.728 357.913 34.279 C 357.943 32.383,357.937 30.831,357.901 30.831 C 357.864 30.831,357.119 31.091,356.245 31.409 C 347.785 34.484,344.333 31.587,346.252 23.023 C 348.027 15.101,353.173 12.996,360.577 17.163 C 360.952 17.373,363.774 10.762,363.423 10.498 C 360.838 8.551,354.167 7.472,350.050 8.334 M374.075 8.327 C 368.810 9.506,365.558 13.970,366.333 18.954 C 366.778 21.812,368.030 23.691,371.386 26.539 C 373.745 28.540,374.241 29.203,374.241 30.356 C 374.241 33.143,370.150 33.437,364.991 31.019 C 364.065 30.585,363.275 30.230,363.236 30.230 C 363.196 30.230,363.163 31.895,363.163 33.931 L 363.163 37.631 364.183 38.148 C 368.692 40.432,376.692 39.725,379.809 36.766 C 380.547 36.066,381.579 34.892,381.591 34.739 C 381.595 34.686,381.717 34.347,381.861 33.988 C 382.390 32.667,382.439 32.525,382.505 32.132 C 383.297 27.422,381.948 24.466,377.324 20.778 C 371.451 16.095,375.159 12.934,382.607 16.275 L 383.331 16.600 384.709 13.561 C 386.370 9.895,386.367 10.308,384.734 9.588 C 381.570 8.194,377.053 7.660,374.075 8.327 M12.818 9.459 C 12.141 12.570,11.612 15.115,11.612 15.256 C 11.612 15.344,13.086 15.415,14.889 15.415 L 18.166 15.415 17.803 17.167 C 17.603 18.131,16.979 21.126,16.416 23.824 C 15.854 26.522,15.267 29.359,15.112 30.130 C 14.476 33.285,13.399 38.361,13.296 38.689 C 13.194 39.015,13.478 39.039,17.388 39.039 L 21.590 39.039 21.718 38.388 C 21.849 37.730,22.291 35.597,23.431 30.130 C 23.775 28.478,24.281 26.046,24.556 24.725 C 24.830 23.403,25.262 21.331,25.516 20.120 C 25.770 18.909,26.091 17.357,26.229 16.671 L 26.479 15.425 29.792 15.370 L 33.105 15.315 33.269 14.715 C 33.359 14.384,33.662 13.033,33.943 11.712 C 34.224 10.390,34.504 9.107,34.566 8.859 L 34.678 8.408 23.862 8.408 L 13.046 8.408 12.818 9.459 M38.843 9.560 C 38.720 10.193,38.481 11.341,38.314 12.112 C 38.146 12.883,37.794 14.550,37.532 15.816 C 37.269 17.082,36.777 19.424,36.437 21.021 C 36.097 22.618,35.737 24.329,35.636 24.825 C 35.206 26.942,32.857 37.986,32.729 38.488 L 32.589 39.039 36.775 39.039 L 40.961 39.039 41.708 35.485 C 42.118 33.531,42.648 31.049,42.884 29.970 L 43.314 28.008 44.029 28.068 L 44.745 28.128 46.742 33.584 L 48.740 39.039 53.199 39.039 C 55.765 39.039,57.658 38.961,57.658 38.856 C 57.658 38.755,56.486 35.958,55.055 32.640 C 52.061 25.701,52.234 26.346,53.227 25.839 C 58.895 22.948,59.968 13.583,55.004 10.325 C 52.679 8.799,50.389 8.417,43.508 8.412 L 39.067 8.408 38.843 9.560 M66.667 9.560 C 66.542 10.193,65.998 12.783,65.460 15.315 C 64.921 17.848,64.339 20.596,64.166 21.421 C 63.992 22.247,63.396 25.085,62.841 27.728 C 62.285 30.370,61.575 33.749,61.262 35.235 C 60.950 36.722,60.632 38.187,60.555 38.491 L 60.416 39.043 69.597 38.991 L 78.779 38.939 79.416 35.936 C 79.767 34.284,80.059 32.775,80.067 32.583 C 80.079 32.258,79.718 32.232,75.175 32.232 C 72.453 32.232,70.270 32.153,70.270 32.055 C 70.270 31.427,71.368 26.900,71.549 26.780 C 71.672 26.699,73.776 26.631,76.226 26.630 C 78.676 26.628,80.681 26.598,80.681 26.563 C 80.681 26.529,80.996 25.116,81.381 23.423 C 81.767 21.731,82.082 20.228,82.082 20.083 C 82.082 19.873,81.156 19.820,77.508 19.820 L 72.933 19.820 73.298 17.893 C 73.499 16.832,73.716 15.796,73.782 15.590 C 73.894 15.237,74.189 15.215,78.892 15.215 C 81.638 15.215,83.884 15.148,83.884 15.065 C 83.884 14.982,84.153 13.609,84.481 12.012 C 84.810 10.415,85.080 8.951,85.082 8.759 C 85.085 8.430,84.520 8.408,75.990 8.408 L 66.895 8.408 66.667 9.560 M167.153 12.860 C 165.922 15.311,164.353 18.398,163.666 19.720 C 161.291 24.294,153.954 38.794,153.954 38.916 C 153.954 38.984,155.878 39.039,158.231 39.039 L 162.507 39.039 163.771 36.236 L 165.035 33.433 169.705 33.433 L 174.374 33.433 174.374 35.006 C 174.374 35.870,174.432 37.132,174.503 37.808 L 174.632 39.039 178.607 39.039 C 182.260 39.039,182.583 39.011,182.583 38.689 C 182.583 38.496,182.360 35.771,182.087 32.633 C 181.416 24.922,180.645 15.744,180.371 12.212 C 180.248 10.616,180.123 9.129,180.094 8.909 C 180.042 8.521,179.869 8.507,174.716 8.455 L 169.391 8.402 167.153 12.860 M192.392 8.568 C 192.392 8.656,192.163 9.805,191.883 11.121 C 191.383 13.467,190.035 19.865,189.081 24.424 C 187.955 29.801,186.212 37.980,186.082 38.488 L 185.943 39.039 189.660 39.039 L 193.378 39.039 193.565 38.288 C 193.774 37.446,194.879 32.215,195.900 27.227 C 196.271 25.410,196.733 22.552,196.924 20.875 C 197.116 19.199,197.302 17.856,197.338 17.892 C 197.406 17.960,197.854 19.518,199.964 27.027 C 200.629 29.394,201.630 32.955,202.188 34.939 C 202.746 36.924,203.203 38.658,203.203 38.793 C 203.203 38.981,204.363 39.039,208.092 39.039 L 212.981 39.039 213.286 37.688 C 213.596 36.314,214.171 33.603,216.019 24.825 C 218.446 13.288,219.428 8.756,219.541 8.574 C 219.597 8.483,217.926 8.408,215.828 8.408 C 212.145 8.408,212.012 8.422,212.012 8.809 C 212.012 9.029,211.917 9.209,211.800 9.209 C 211.683 9.209,211.637 9.289,211.698 9.387 C 211.811 9.571,211.544 10.948,210.297 16.617 C 209.898 18.433,209.236 21.898,208.826 24.315 C 208.417 26.732,208.031 28.624,207.969 28.519 C 207.711 28.082,206.208 22.582,206.304 22.426 C 206.362 22.333,206.330 22.226,206.233 22.189 C 206.136 22.152,205.497 20.185,204.814 17.818 C 202.765 10.715,202.178 8.731,202.076 8.566 C 201.948 8.359,192.392 8.361,192.392 8.568 M229.685 13.263 C 228.341 15.933,224.845 22.827,221.916 28.583 L 216.591 39.047 220.946 38.993 L 225.300 38.939 226.468 36.346 C 227.906 33.152,227.303 33.440,232.560 33.436 L 236.992 33.433 237.137 36.236 L 237.282 39.039 241.314 39.039 L 245.345 39.040 245.345 37.888 C 245.345 37.255,245.290 36.692,245.222 36.637 C 245.154 36.582,244.991 35.050,244.861 33.233 C 244.731 31.416,244.456 28.038,244.251 25.726 C 244.045 23.413,243.626 18.571,243.320 14.965 L 242.763 8.408 237.446 8.408 L 232.128 8.408 229.685 13.263 M255.159 8.659 C 255.113 8.796,254.748 10.485,254.348 12.412 C 253.947 14.339,253.363 17.132,253.049 18.619 C 252.735 20.105,252.110 23.078,251.662 25.225 C 251.213 27.372,250.668 29.940,250.452 30.931 C 249.443 35.547,248.849 38.436,248.849 38.724 C 248.849 39.006,249.806 39.039,257.931 39.039 L 267.012 39.039 267.658 35.986 C 268.012 34.307,268.317 32.798,268.336 32.633 C 268.364 32.374,267.681 32.325,263.441 32.279 L 258.514 32.225 258.762 31.078 C 258.898 30.446,259.244 28.804,259.529 27.427 C 259.815 26.051,260.495 22.808,261.040 20.220 C 261.586 17.633,262.136 15.020,262.264 14.414 C 262.391 13.809,262.713 12.279,262.979 11.015 C 263.246 9.752,263.463 8.648,263.463 8.563 C 263.463 8.282,255.253 8.376,255.159 8.659 M274.074 8.533 C 274.074 8.605,275.168 12.819,276.505 17.896 L 278.937 27.127 278.399 29.830 C 277.791 32.878,276.784 37.657,276.573 38.488 L 276.433 39.039 280.637 39.039 L 284.840 39.039 284.975 38.288 C 285.050 37.875,285.381 36.276,285.712 34.735 C 287.444 26.656,287.196 27.482,288.445 25.628 C 289.075 24.694,291.962 20.460,294.861 16.219 L 300.132 8.509 295.566 8.455 C 291.174 8.403,290.987 8.416,290.694 8.808 C 290.527 9.032,289.084 11.509,287.487 14.314 C 285.891 17.119,284.540 19.414,284.484 19.416 C 284.429 19.417,283.979 16.963,283.483 13.963 L 282.583 8.509 278.328 8.454 C 275.988 8.425,274.074 8.460,274.074 8.533 M300.455 11.762 C 300.064 13.606,299.785 15.183,299.834 15.265 C 299.883 15.348,301.369 15.415,303.137 15.415 L 306.350 15.415 306.212 15.966 C 306.136 16.269,305.762 18.003,305.382 19.820 C 305.002 21.637,304.464 24.204,304.188 25.526 C 303.911 26.847,303.556 28.559,303.400 29.329 C 303.243 30.100,302.792 32.262,302.397 34.134 C 302.002 36.006,301.627 37.875,301.564 38.288 L 301.449 39.039 305.558 39.039 C 308.666 39.039,309.688 38.978,309.752 38.789 C 309.799 38.651,310.913 33.336,312.226 26.978 L 314.615 15.417 317.856 15.416 C 319.985 15.416,321.144 15.340,321.233 15.196 C 321.376 14.965,322.712 9.087,322.719 8.659 C 322.722 8.462,320.436 8.408,311.944 8.408 L 301.166 8.408 300.455 11.762 M327.229 8.659 C 327.134 8.936,326.369 12.419,325.724 15.516 C 324.960 19.182,323.549 25.890,322.923 28.829 C 321.422 35.875,321.061 37.583,320.922 38.288 L 320.774 39.039 324.952 39.039 C 327.249 39.039,329.129 39.007,329.129 38.968 C 329.129 38.874,331.237 28.819,332.934 20.821 C 333.273 19.224,333.955 15.982,334.451 13.616 C 334.946 11.250,335.403 9.110,335.465 8.861 L 335.579 8.408 331.447 8.408 C 328.320 8.408,327.294 8.469,327.229 8.659 M173.852 20.771 L 173.985 26.827 171.077 26.827 C 169.477 26.827,168.168 26.790,168.168 26.745 C 168.168 26.700,169.122 24.605,170.288 22.090 C 172.217 17.930,173.077 15.982,173.448 14.936 C 173.690 14.255,173.717 14.644,173.852 20.771 M236.660 23.423 L 236.737 26.727 233.884 26.782 C 231.894 26.821,231.031 26.771,231.031 26.616 C 231.031 26.494,232.055 24.171,233.307 21.455 C 234.559 18.739,235.753 16.066,235.960 15.516 L 236.336 14.515 236.460 17.317 C 236.528 18.859,236.618 21.607,236.660 23.423 M48.553 15.131 C 50.222 15.923,50.262 19.053,48.622 20.561 C 47.360 21.721,44.478 22.100,44.743 21.071 C 44.886 20.516,46.046 15.007,46.046 14.882 C 46.046 14.671,47.992 14.864,48.553 15.131 M133.242 15.191 C 137.946 17.328,135.263 30.556,129.750 32.404 C 126.676 33.435,124.324 31.333,124.324 27.553 C 124.324 19.898,129.083 13.302,133.242 15.191 " stroke="none" fill="#fff" fill-rule="evenodd"></path></g></svg>